<svg xmlns="http://www.w3.org/2000/svg" width="434.501" height="383.807" viewBox="0 0 434.501 383.807">
  <g id="Diesel_generator" data-name="Diesel generator" transform="translate(0 -29.868)">
    <g id="Group_143" data-name="Group 143" transform="translate(0 29.868)">
      <g id="Group_142" data-name="Group 142">
        <path id="Path_57" data-name="Path 57" d="M200.692,200.533H70.342a14.5,14.5,0,0,0-14.484,14.484H48.617A14.5,14.5,0,0,0,34.133,229.5v14.484a14.5,14.5,0,0,0,14.484,14.484h7.241v43.449H48.617A14.5,14.5,0,0,0,34.133,316.4v14.484a14.5,14.5,0,0,0,14.484,14.484h7.241a14.5,14.5,0,0,0,14.484,14.484h130.35a14.5,14.5,0,0,0,14.484-14.484V215.017A14.5,14.5,0,0,0,200.692,200.533ZM55.858,330.883H48.617V316.4h7.241Zm0-86.9H48.617V229.5h7.241ZM70.342,345.367V215.017h130.35l.01,130.35Z" transform="translate(-5.167 -55.701)" fill="#9f0101"/>
        <path id="Path_58" data-name="Path 58" d="M130.075,311.467H101.108a7.241,7.241,0,1,0,0,14.483h28.966a7.241,7.241,0,1,0,0-14.483Z" transform="translate(-14.208 -72.493)" fill="#9f0101"/>
        <path id="Path_59" data-name="Path 59" d="M130.075,337.067H101.108a7.241,7.241,0,1,0,0,14.483h28.966a7.241,7.241,0,1,0,0-14.483Z" transform="translate(-14.208 -76.368)" fill="#9f0101"/>
        <path id="Path_60" data-name="Path 60" d="M203.508,277.333a7.242,7.242,0,0,0-7.241,7.241v14.484a7.241,7.241,0,0,0,14.483,0V284.574A7.242,7.242,0,0,0,203.508,277.333Z" transform="translate(-29.708 -67.326)" fill="#9f0101"/>
        <path id="Path_61" data-name="Path 61" d="M387.642,183.467H279.017a14.5,14.5,0,0,0-14.484,14.484v57.933a14.5,14.5,0,0,0,14.484,14.484H387.642a14.5,14.5,0,0,0,14.484-14.484V197.95A14.5,14.5,0,0,0,387.642,183.467ZM279.017,255.883V197.95H387.642l.01,57.934Z" transform="translate(-40.041 -53.118)" fill="#9f0101"/>
        <path id="Path_62" data-name="Path 62" d="M387.642,302.933H279.017a14.5,14.5,0,0,0-14.484,14.484V375.35a14.5,14.5,0,0,0,14.484,14.484H387.642a14.5,14.5,0,0,0,14.484-14.484V317.417A14.5,14.5,0,0,0,387.642,302.933ZM279.017,375.35V317.417H387.642l.01,57.934Z" transform="translate(-40.041 -71.201)" fill="#9f0101"/>
        <path id="Path_63" data-name="Path 63" d="M353.233,337.067H331.508a7.241,7.241,0,0,0,0,14.483h21.725a7.241,7.241,0,0,0,0-14.483Z" transform="translate(-49.083 -76.368)" fill="#9f0101"/>
        <path id="Path_64" data-name="Path 64" d="M427.259,399.192H376.568V377.467a14.5,14.5,0,0,0,14.484-14.484V116.767h21.725a7.241,7.241,0,0,0,7.1-5.82L434.36,38.531a7.241,7.241,0,0,0-7.1-8.663H376.569a65.251,65.251,0,0,0-65.175,65.175v36.209H238.975V116.768a50.749,50.749,0,0,0-50.691-50.691h-7.241a7.242,7.242,0,0,0-7.241-7.241H86.9a7.241,7.241,0,0,0-7.241,7.241H7.241A7.239,7.239,0,0,0,0,73.317v28.966a7.241,7.241,0,0,0,7.241,7.241H28.966V131.25H14.484A14.5,14.5,0,0,0,0,145.734v217.25a14.5,14.5,0,0,0,14.484,14.484v21.725H7.241a7.241,7.241,0,0,0,0,14.483H427.258a7.241,7.241,0,0,0,0-14.483ZM391.05,44.35h27.375l-11.587,57.934H391.05ZM325.875,95.042a50.749,50.749,0,0,1,50.691-50.691v57.933H325.875Zm0,21.725h50.691v14.484H325.875ZM181.042,80.559h7.241a36.251,36.251,0,0,1,36.209,36.209v14.484h-43.45Zm-86.9-7.241h72.416v28.966H94.141V73.317ZM86.9,116.767h79.659v14.484H43.45V109.526H79.659A7.242,7.242,0,0,0,86.9,116.767ZM14.484,95.042V80.559H79.659V95.042Zm0,50.691H376.567l.011,217.25H14.484Zm347.6,253.459H28.966V377.467H362.083v21.725Z" transform="translate(0 -29.868)" fill="#9f0101"/>
      </g>
    </g>
  </g>
</svg>
