<svg xmlns="http://www.w3.org/2000/svg" width="560.869" height="355.064" viewBox="0 0 560.869 355.064">
  <g id="air-conditioner-chiller" transform="translate(0 -93.937)">
    <g id="Group_153" data-name="Group 153" transform="translate(0 93.937)">
      <g id="Group_152" data-name="Group 152">
        <path id="Path_76" data-name="Path 76" d="M528.9,93.937H31.971A32.007,32.007,0,0,0,0,125.909V417.029A32.008,32.008,0,0,0,31.971,449H528.9a32.008,32.008,0,0,0,31.971-31.972V125.909A32.007,32.007,0,0,0,528.9,93.937Zm0,332.718H31.971a9.637,9.637,0,0,1-9.626-9.627V125.909a9.638,9.638,0,0,1,9.626-9.627H528.9a9.637,9.637,0,0,1,9.626,9.627V417.029h0A9.638,9.638,0,0,1,528.9,426.655Z" transform="translate(0 -93.937)" fill="#009e54"/>
      </g>
    </g>
    <g id="Group_155" data-name="Group 155" transform="translate(52.511 142.982)">
      <g id="Group_154" data-name="Group 154">
        <path id="Path_77" data-name="Path 77" d="M176.422,138.709A128.486,128.486,0,1,0,304.908,267.2,128.632,128.632,0,0,0,176.422,138.709Zm0,234.626A106.14,106.14,0,1,1,282.562,267.2,106.26,106.26,0,0,1,176.422,373.335Z" transform="translate(-47.936 -138.709)" fill="#009e54"/>
      </g>
    </g>
    <g id="Group_157" data-name="Group 157" transform="translate(87.487 172.824)">
      <g id="Group_156" data-name="Group 156">
        <path id="Path_78" data-name="Path 78" d="M268.58,272.029A25.421,25.421,0,0,0,243.5,260.362a97.834,97.834,0,0,1-37.126-2.193,34.784,34.784,0,0,0-8.588-16.313,26.847,26.847,0,0,1,4.663-7.585,48.99,48.99,0,0,0,12.139-32.288,34.714,34.714,0,0,0-33.065-34.708l-26.609-1.291a25.661,25.661,0,0,0-21.558,41.31,96.466,96.466,0,0,1,16.295,31.926,34.9,34.9,0,0,0-10.869,17.073,26.755,26.755,0,0,1-7.5-.4,49,49,0,0,0-34.031,5.632,34.712,34.712,0,0,0-13.525,45.988L95.914,331.2a25.389,25.389,0,0,0,22.772,13.923c.379,0,.76-.008,1.14-.023a25.414,25.414,0,0,0,22.643-15.886,96.454,96.454,0,0,1,19.69-30.272,34.773,34.773,0,0,0,19.438.265,26.76,26.76,0,0,1,3.994,7.5,49,49,0,0,0,21.893,26.656,34.7,34.7,0,0,0,46.589-11.28l14.424-22.4A25.4,25.4,0,0,0,268.58,272.029ZM121.8,320.723a3.316,3.316,0,0,1-6.015.257L103.6,297.291a12.393,12.393,0,0,1,4.828-16.416,26.667,26.667,0,0,1,18.514-3.065,49.22,49.22,0,0,0,13.076.788,34.844,34.844,0,0,0,3.9,7.135A118.637,118.637,0,0,0,121.8,320.723Zm50.545-42.6a12.5,12.5,0,1,1,12.5-12.5A12.512,12.512,0,0,1,172.347,278.12Zm13.291-58.571a49.248,49.248,0,0,0-7.591,11.708,34.925,34.925,0,0,0-5.7-.473c-.633,0-1.261.019-1.887.053a118.616,118.616,0,0,0-19.412-37.195,3.315,3.315,0,0,1,2.784-5.338l26.61,1.292a12.391,12.391,0,0,1,11.8,12.388A26.644,26.644,0,0,1,185.638,219.549Zm64.073,68.04-14.425,22.4a12.392,12.392,0,0,1-16.63,4.027,26.654,26.654,0,0,1-11.911-14.5,49.274,49.274,0,0,0-6.652-12.85,34.938,34.938,0,0,0,3.732-6.124,120.338,120.338,0,0,0,42.657,1.97,3.314,3.314,0,0,1,3.228,5.08Z" transform="translate(-79.864 -165.951)" fill="#009e54"/>
      </g>
    </g>
    <g id="Group_159" data-name="Group 159" transform="translate(340.767 146.334)">
      <g id="Group_158" data-name="Group 158">
        <path id="Path_79" data-name="Path 79" d="M470.845,141.769h-148.6a11.172,11.172,0,1,0,0,22.345h148.6a11.172,11.172,0,1,0,0-22.345Z" transform="translate(-311.076 -141.769)" fill="#009e54"/>
      </g>
    </g>
    <g id="Group_161" data-name="Group 161" transform="translate(340.767 203.315)">
      <g id="Group_160" data-name="Group 160" transform="translate(0 0)">
        <path id="Path_80" data-name="Path 80" d="M470.845,193.785h-148.6a11.172,11.172,0,1,0,0,22.345h148.6a11.172,11.172,0,1,0,0-22.345Z" transform="translate(-311.076 -193.785)" fill="#009e54"/>
      </g>
    </g>
    <g id="Group_163" data-name="Group 163" transform="translate(340.767 260.296)">
      <g id="Group_162" data-name="Group 162" transform="translate(0 0)">
        <path id="Path_81" data-name="Path 81" d="M470.845,245.8h-148.6a11.172,11.172,0,1,0,0,22.345h148.6a11.172,11.172,0,1,0,0-22.345Z" transform="translate(-311.076 -245.801)" fill="#009e54"/>
      </g>
    </g>
    <g id="Group_165" data-name="Group 165" transform="translate(340.767 317.277)">
      <g id="Group_164" data-name="Group 164">
        <path id="Path_82" data-name="Path 82" d="M470.845,297.817h-148.6a11.172,11.172,0,1,0,0,22.345h148.6a11.172,11.172,0,1,0,0-22.345Z" transform="translate(-311.076 -297.817)" fill="#009e54"/>
      </g>
    </g>
    <g id="Group_167" data-name="Group 167" transform="translate(340.767 374.258)">
      <g id="Group_166" data-name="Group 166">
        <path id="Path_83" data-name="Path 83" d="M426.155,349.833H322.248a11.172,11.172,0,1,0,0,22.345H426.155a11.172,11.172,0,0,0,0-22.345Z" transform="translate(-311.076 -349.833)" fill="#009e54"/>
      </g>
    </g>
    <g id="Group_169" data-name="Group 169" transform="translate(483.777 374.258)">
      <g id="Group_168" data-name="Group 168">
        <path id="Path_84" data-name="Path 84" d="M458.384,349.833H452.8a11.172,11.172,0,1,0,0,22.345h5.587a11.172,11.172,0,1,0,0-22.345Z" transform="translate(-441.625 -349.833)" fill="#009e54"/>
      </g>
    </g>
  </g>
</svg>
