<svg xmlns="http://www.w3.org/2000/svg" width="547.172" height="683.944" viewBox="0 0 547.172 683.944">
  <g id="Electricity" transform="translate(-51.193)">
    <g id="Group_326" data-name="Group 326" transform="translate(51.193 263.568)">
      <g id="Group_325" data-name="Group 325" transform="translate(0)">
        <path id="Path_101" data-name="Path 101" d="M94.448,197.308H61.212a10.019,10.019,0,0,0,0,20.037H94.45a10.019,10.019,0,1,0,0-20.037Z" transform="translate(-51.193 -197.308)" fill="#f80"/>
      </g>
    </g>
    <g id="Group_328" data-name="Group 328" transform="translate(545.091 263.568)">
      <g id="Group_327" data-name="Group 327">
        <path id="Path_102" data-name="Path 102" d="M464.182,197.308H430.946a10.019,10.019,0,0,0,0,20.037h33.237a10.019,10.019,0,1,0,0-20.037Z" transform="translate(-420.927 -197.308)" fill="#f80"/>
      </g>
    </g>
    <g id="Group_330" data-name="Group 330" transform="translate(128.388 426.437)">
      <g id="Group_329" data-name="Group 329">
        <path id="Path_103" data-name="Path 103" d="M149.589,322.167a10.021,10.021,0,0,0-14.17,0l-23.5,23.5a10.019,10.019,0,0,0,14.17,14.169l23.5-23.5A10.017,10.017,0,0,0,149.589,322.167Z" transform="translate(-108.981 -319.232)" fill="#f80"/>
      </g>
    </g>
    <g id="Group_332" data-name="Group 332" transform="translate(314.76)">
      <g id="Group_331" data-name="Group 331" transform="translate(0)">
        <path id="Path_104" data-name="Path 104" d="M258.519,0A10.018,10.018,0,0,0,248.5,10.019V43.257a10.019,10.019,0,1,0,20.037,0V10.019A10.016,10.016,0,0,0,258.519,0Z" transform="translate(-248.5)" fill="#f80"/>
      </g>
    </g>
    <g id="Group_334" data-name="Group 334" transform="translate(477.629 426.437)">
      <g id="Group_333" data-name="Group 333" transform="translate(0)">
        <path id="Path_105" data-name="Path 105" d="M411.032,345.669l-23.5-23.5a10.02,10.02,0,0,0-14.171,14.169l23.5,23.5a10.019,10.019,0,0,0,14.17-14.169Z" transform="translate(-370.424 -319.232)" fill="#f80"/>
      </g>
    </g>
    <g id="Group_336" data-name="Group 336" transform="translate(128.388 77.199)">
      <g id="Group_335" data-name="Group 335">
        <path id="Path_106" data-name="Path 106" d="M149.589,84.228l-23.5-23.5a10.019,10.019,0,0,0-14.17,14.169l23.5,23.5a10.019,10.019,0,1,0,14.17-14.169Z" transform="translate(-108.981 -57.791)" fill="#f80"/>
      </g>
    </g>
    <g id="Group_338" data-name="Group 338" transform="translate(204.755 63.549)">
      <g id="Group_337" data-name="Group 337">
        <path id="Path_107" data-name="Path 107" d="M524.739,47.573H466.85a24.47,24.47,0,0,0,0,48.939h.158l-28.375,28.859A202.388,202.388,0,0,0,310.763,56.954a10.019,10.019,0,1,0-2.426,19.89,182.216,182.216,0,0,1,116.2,62.858L319.954,246.068l-32.032-22.746a24.437,24.437,0,0,0-32.451,3.687L172.324,320.48a24.471,24.471,0,0,0,36.568,32.527l68.572-77.086,31.153,22.122a24.367,24.367,0,0,0,31.616-2.794L451.4,182.185a179.752,179.752,0,0,1,14.062,48.124,10.019,10.019,0,1,0,19.828-2.9,199.536,199.536,0,0,0-18.944-60.427l33.916-34.493v.321a24.471,24.471,0,0,0,48.942,0V72.043A24.5,24.5,0,0,0,524.739,47.573Zm4.432,85.237c0,5.854-8.863,5.859-8.863,0v-24.8a10.029,10.029,0,0,0-17.164-7.024L325.95,281.2a4.413,4.413,0,0,1-5.725.506L281.75,254.382a10.022,10.022,0,0,0-13.287,1.509l-74.54,83.8A4.431,4.431,0,0,1,187.3,333.8l83.145-93.471a4.475,4.475,0,0,1,5.876-.667l38.992,27.69a10.038,10.038,0,0,0,12.945-1.145l169.8-172.687a10.028,10.028,0,0,0-7.144-17.044H466.852c-5.854,0-5.858-8.863,0-8.863h57.889a4.436,4.436,0,0,1,4.431,4.431V132.81Z" transform="translate(-166.15 -47.573)" fill="#f80"/>
      </g>
    </g>
    <g id="Group_340" data-name="Group 340" transform="translate(123.51 72.881)">
      <g id="Group_339" data-name="Group 339">
        <path id="Path_108" data-name="Path 108" d="M497.9,263.3a10.019,10.019,0,0,0-10.947,8.994c-5.421,55.3-36.871,106.024-84.131,135.7a67.4,67.4,0,0,0-31.851,57.328V506.55H242.225V464.4a65.974,65.974,0,0,0-30.868-55.8A180.276,180.276,0,0,1,125.37,254.387c0-91.306,68.39-168.633,159.084-179.865a10.019,10.019,0,1,0-2.465-19.885,201.269,201.269,0,0,0-81.182,371.005,45.8,45.8,0,0,1,21.377,38.766v43.6A26.075,26.075,0,0,0,204.652,532.6v14.282a25.9,25.9,0,0,0,5.56,16.031,25.891,25.891,0,0,0-5.56,16.031v14.281a26.079,26.079,0,0,0,26.05,26.05h31.5v22.649a23.72,23.72,0,0,0,23.693,23.695H327.3a23.72,23.72,0,0,0,23.693-23.695V619.279h31.5a26.08,26.08,0,0,0,26.05-26.05V578.947a25.9,25.9,0,0,0-5.56-16.031,25.893,25.893,0,0,0,5.56-16.031V532.6a26.073,26.073,0,0,0-17.533-24.591V465.319a47.468,47.468,0,0,1,22.469-40.357,201.232,201.232,0,0,0,93.417-150.711A10.014,10.014,0,0,0,497.9,263.3ZM330.959,641.923h0a3.707,3.707,0,0,1-3.656,3.656H285.9a3.7,3.7,0,0,1-3.655-3.656V619.274h48.716Zm57.547-48.7a6.092,6.092,0,0,1-6.011,6.011H230.7a6.092,6.092,0,0,1-6.011-6.011V578.943a6.092,6.092,0,0,1,6.011-6.011H382.5a6.092,6.092,0,0,1,6.011,6.011Zm0-46.344a6.092,6.092,0,0,1-6.011,6.011H230.7a6.092,6.092,0,0,1-6.011-6.011V532.6a6.092,6.092,0,0,1,6.011-6.011H382.5a6.092,6.092,0,0,1,6.011,6.011Z" transform="translate(-105.33 -54.559)" fill="#f80"/>
      </g>
    </g>
  </g>
</svg>
