<svg xmlns="http://www.w3.org/2000/svg" width="1274.467" height="1599.331" viewBox="0 0 1274.467 1599.331">
  <defs>
    <style>
      .cls-1 {
        fill: #fff;
      }
    </style>
  </defs>
  <g id="charminar" transform="translate(-22.459 -16.959)">
    <g id="Layer_1" transform="translate(22.459 16.959)">
      <path id="Path_1" data-name="Path 1" class="cls-1" d="M261.693,494.272c-19.992,0-37.484,17.493-37.484,37.484v49.979c0,7.5,5,12.495,12.495,12.495h49.979c7.5,0,12.495-5,12.495-12.495V531.756C299.178,511.764,281.685,494.272,261.693,494.272Zm12.495,74.969H249.2V531.756c0-7.5,5-12.495,12.495-12.495s12.495,5,12.495,12.495ZM261.693,369.324c-19.992,0-37.484,17.493-37.484,37.484v49.979c0,7.5,5,12.495,12.495,12.495h49.979c7.5,0,12.495-5,12.495-12.495V406.808C299.178,386.817,281.685,369.324,261.693,369.324Zm12.495,74.969H249.2V406.808c0-7.5,5-12.495,12.495-12.495s12.495,5,12.495,12.495ZM86.766,269.366c7.5,0,12.495-5,12.495-12.495V206.892c0-19.992-17.493-37.484-37.484-37.484S24.293,186.9,24.293,206.892v49.979c0,7.5,5,12.495,12.495,12.495ZM49.282,206.892c0-7.5,5-12.495,12.495-12.495s12.495,5,12.495,12.495v37.484H49.282ZM36.787,144.418H86.766c7.5,0,12.495-5,12.495-12.495V81.944c0-19.991-17.493-37.484-37.484-37.484S24.293,61.953,24.293,81.944v49.979C24.293,139.42,29.29,144.418,36.787,144.418ZM49.282,81.944c0-7.5,5-12.495,12.495-12.495s12.495,5,12.495,12.495v37.484H49.282Zm87.463,187.422h49.979c7.5,0,12.495-5,12.495-12.495V206.892c0-19.992-17.493-37.484-37.484-37.484s-37.484,17.493-37.484,37.484v49.979C124.251,264.368,129.249,269.366,136.745,269.366Zm12.495-62.474c0-7.5,5-12.495,12.495-12.495s12.495,5,12.495,12.495v37.484H149.24Zm-12.495-62.474h49.979c7.5,0,12.495-5,12.495-12.495V81.944c0-19.991-17.493-37.484-37.484-37.484s-37.484,17.493-37.484,37.484v49.979C124.251,139.42,129.249,144.418,136.745,144.418ZM149.24,81.944c0-7.5,5-12.495,12.495-12.495s12.495,5,12.495,12.495v37.484H149.24Zm912.118,87.463c-19.992,0-37.484,17.493-37.484,37.484v49.979c0,7.5,5,12.495,12.495,12.495h49.979c7.5,0,12.495-5,12.495-12.495V206.892C1098.843,186.9,1081.35,169.408,1061.359,169.408Zm12.495,74.969h-24.99V206.892c0-7.5,5-12.495,12.495-12.495s12.495,5,12.495,12.495ZM1061.359,44.46c-19.992,0-37.484,17.493-37.484,37.484v49.979c0,7.5,5,12.495,12.495,12.495h49.979c7.5,0,12.495-5,12.495-12.495V81.944C1098.843,61.953,1081.35,44.46,1061.359,44.46Zm12.495,74.969h-24.99V81.944c0-7.5,5-12.495,12.495-12.495s12.495,5,12.495,12.495Zm87.463,49.979c-19.992,0-37.484,17.493-37.484,37.484v49.979c0,7.5,5,12.495,12.495,12.495h49.979c7.5,0,12.495-5,12.495-12.495V206.892C1198.8,186.9,1181.309,169.408,1161.317,169.408Zm12.495,74.969h-24.989V206.892c0-7.5,5-12.495,12.495-12.495s12.495,5,12.495,12.495ZM1123.833,81.944v49.979c0,7.5,5,12.495,12.495,12.495h49.979c7.5,0,12.495-5,12.495-12.495V81.944c0-19.991-17.493-37.484-37.484-37.484S1123.833,61.953,1123.833,81.944Zm49.979,0v37.484h-24.989V81.944c0-7.5,5-12.495,12.495-12.495S1173.812,74.447,1173.812,81.944Z" transform="translate(25.687 705.226)"/>
      <path id="Path_2" data-name="Path 2" class="cls-1" d="M1284.431,1041.53c7.5,0,12.495-5,12.495-12.495V729.161c0-7.5-5-12.495-12.495-12.495h-62.474V541.74h37.484c7.5,0,12.495-5,12.495-12.495V429.286c0-7.5-5-12.495-12.495-12.495h-37.484V329.328h12.495c7.5,0,12.495-5,12.495-12.495V241.865c0-7.5-5-12.495-12.495-12.495h-12.495V146.9c0-27.489-12.495-52.478-37.484-67.472l-12.495-7.5V29.454c0-7.5-5-12.495-12.495-12.495s-12.495,5-12.495,12.495V71.936l-12.495,7.5C1112,94.427,1097.01,119.416,1097.01,146.9V229.37h-12.495c-7.5,0-12.495,5-12.495,12.495v74.969c0,7.5,5,12.495,12.495,12.495h12.495v87.463h-37.484c-7.5,0-12.495,5-12.495,12.495v99.958c0,7.5,5,12.495,12.495,12.495h37.484v24.989H222.376V541.74H259.86c7.5,0,12.495-5,12.495-12.495V429.286c0-7.5-5-12.495-12.495-12.495H222.376V329.328H234.87c7.5,0,12.495-5,12.495-12.495V241.865c0-7.5-5-12.495-12.495-12.495H222.376V146.9c0-27.489-12.495-52.478-37.484-67.472l-12.495-7.5V29.454c0-7.5-5-12.495-12.495-12.495s-12.495,5-12.495,12.495V71.936l-12.495,7.5C112.421,94.427,97.428,119.416,97.428,146.9V229.37H84.933c-7.5,0-12.495,5-12.495,12.495v74.969c0,7.5,5,12.495,12.495,12.495H97.428v87.463H59.943c-7.5,0-12.495,5-12.495,12.495v99.958c0,7.5,5,12.495,12.495,12.495H97.428V716.666H34.954c-7.5,0-12.495,5-12.495,12.495v299.875c0,7.5,5,12.495,12.495,12.495H72.438V1591.3H34.954c-7.5,0-12.495,5-12.495,12.495s5,12.495,12.495,12.495H1284.431c7.5,0,12.495-5,12.495-12.495s-5-12.495-12.495-12.495h-37.484V1041.53Zm-12.495-24.99H1047.031V741.656h224.906Zm-337.359,0H897.093V904.088c0-37.484,27.488-54.977,37.484-62.474,10,5,37.484,22.491,37.484,62.474v112.453Zm5-199.916h-7.5c-2.5,0-59.975,22.491-59.975,87.463v112.453h-24.99V904.088c0-64.973-54.977-84.965-57.476-87.463h-7.5c-2.5,0-59.975,22.491-59.975,87.463v112.453H597.219V904.088c0-64.973-54.977-84.965-57.476-87.463h-7.5c-2.5,0-59.975,22.491-59.975,87.463v112.453h-24.99V904.088c0-64.973-54.977-84.965-57.476-87.463h-7.5c-2.5,0-59.975,22.491-59.975,87.463v112.453h-24.99V741.656h24.99v12.495c0,7.5,5,12.495,12.495,12.495s12.495-5,12.495-12.495V741.656h24.99v12.495c0,7.5,5,12.495,12.495,12.495s12.495-5,12.495-12.495V741.656h24.989v12.495c0,7.5,5,12.495,12.495,12.495s12.495-5,12.495-12.495V741.656h24.99v12.495c0,7.5,5,12.495,12.495,12.495s12.495-5,12.495-12.495V741.656h24.99v12.495c0,7.5,5,12.495,12.495,12.495s12.495-5,12.495-12.495V741.656h24.99v12.495c0,7.5,5,12.495,12.495,12.495s12.495-5,12.495-12.495V741.656h24.99v12.495c0,7.5,5,12.495,12.495,12.495s12.495-5,12.495-12.495V741.656h24.99v12.495c0,7.5,5,12.495,12.495,12.495s12.495-5,12.495-12.495V741.656h24.99v12.495c0,7.5,5,12.495,12.495,12.495s12.495-5,12.495-12.495V741.656h24.99v12.495c0,7.5,5,12.495,12.495,12.495s12.495-5,12.495-12.495V741.656h24.99v12.495c0,7.5,5,12.495,12.495,12.495s12.495-5,12.495-12.495V741.656H872.1v12.495c0,7.5,5,12.495,12.495,12.495s12.495-5,12.495-12.495V741.656h24.99v12.495c0,7.5,5,12.495,12.495,12.495s12.495-5,12.495-12.495V741.656h24.99v12.495c0,7.5,5,12.495,12.495,12.495s12.495-5,12.495-12.495V741.656h24.99v274.885h-24.99V904.088C997.051,839.115,942.075,819.123,939.576,816.625Zm-192.42,199.916V904.088c0-37.484,27.489-54.977,37.484-62.474,10,5,37.484,22.491,37.484,62.474v112.453Zm-249.9,0V904.088c0-37.484,27.488-54.977,37.484-62.474,10,5,37.484,22.491,37.484,62.474v112.453Zm-112.453,0H347.323V904.088c0-37.484,27.489-54.977,37.484-62.474,10,5,37.484,22.491,37.484,62.474v112.453ZM222.376,641.7H1097.01v74.969h-49.979V704.172c0-19.992-17.493-37.484-37.484-37.484s-37.484,17.493-37.484,37.484v12.495h-24.99V704.172c0-19.992-17.493-37.484-37.484-37.484S872.1,684.18,872.1,704.172v12.495h-24.99V704.172c0-19.992-17.493-37.484-37.484-37.484s-37.484,17.493-37.484,37.484v12.495h-24.99V704.172c0-19.992-17.493-37.484-37.484-37.484s-37.484,17.493-37.484,37.484v12.495H647.2V704.172c0-19.992-17.493-37.484-37.484-37.484s-37.484,17.493-37.484,37.484v12.495H547.24V704.172c0-19.992-17.493-37.484-37.484-37.484s-37.484,17.493-37.484,37.484v12.495h-24.99V704.172c0-19.992-17.493-37.484-37.484-37.484s-37.484,17.493-37.484,37.484v12.495h-24.99V704.172c0-19.992-17.493-37.484-37.484-37.484s-37.484,17.493-37.484,37.484v12.495H222.376Zm799.665,74.969h-24.99V704.172c0-7.5,5-12.495,12.495-12.495s12.495,5,12.495,12.495Zm-99.958,0h-24.99V704.172c0-7.5,5-12.495,12.495-12.495s12.495,5,12.495,12.495Zm-99.958,0h-24.99V704.172c0-7.5,5-12.495,12.495-12.495s12.495,5,12.495,12.495Zm-99.958,0h-24.99V704.172c0-7.5,5-12.495,12.495-12.495s12.495,5,12.495,12.495Zm-99.958,0h-24.99V704.172c0-7.5,5-12.495,12.495-12.495s12.495,5,12.495,12.495Zm-99.958,0h-24.99V704.172c0-7.5,5-12.495,12.495-12.495s12.495,5,12.495,12.495Zm-99.958,0H397.3V704.172c0-7.5,5-12.495,12.495-12.495s12.495,5,12.495,12.495Zm-99.958,0h-24.99V704.172c0-7.5,5-12.495,12.495-12.495s12.495,5,12.495,12.495Zm899.623-412.328h-24.989V291.844c0-7.5-5-12.495-12.495-12.495s-12.495,5-12.495,12.495v12.495h-24.99V291.844c0-7.5-5-12.495-12.495-12.495s-12.495,5-12.495,12.495v12.495h-24.99V254.36h124.948Zm-74.968-202.415,12.495-7.5,12.495,7.5c14.994,10,22.491,24.99,24.99,39.983H1122C1124.5,124.414,1132,109.42,1146.989,101.923ZM1122,166.9h74.969V229.37h-24.99v-24.99c0-7.5-5-12.495-12.495-12.495s-12.495,5-12.495,12.495v24.99H1122Zm0,162.432h74.969v87.463H1122ZM1072.02,516.75V441.781h174.927V516.75h-24.99V479.266c0-7.5-5-12.495-12.495-12.495s-12.495,5-12.495,12.495V516.75h-24.99V479.266c0-7.5-5-12.495-12.495-12.495s-12.495,5-12.495,12.495V516.75H1122V479.266c0-7.5-5-12.495-12.495-12.495s-12.495,5-12.495,12.495V516.75Zm124.948,24.99V716.666H1122V541.74Zm-99.958,49.979v24.99H222.376v-24.99ZM222.376,304.339h-24.99V291.844c0-7.5-5-12.495-12.495-12.495s-12.495,5-12.495,12.495v12.495h-24.99V291.844c0-7.5-5-12.495-12.495-12.495s-12.495,5-12.495,12.495v12.495H97.428V254.36H222.376ZM147.407,101.923l12.495-7.5,12.495,7.5c14.994,10,22.491,24.99,24.99,39.983H122.417C124.916,124.414,132.413,109.42,147.407,101.923ZM122.417,166.9h74.969V229.37H172.4v-24.99c0-7.5-5-12.495-12.495-12.495s-12.495,5-12.495,12.495v24.99h-24.99Zm0,162.432h74.969v87.463H122.417ZM72.438,516.75V441.781H247.365V516.75h-24.99V479.266c0-7.5-5-12.495-12.495-12.495s-12.495,5-12.495,12.495V516.75H172.4V479.266c0-7.5-5-12.495-12.495-12.495s-12.495,5-12.495,12.495V516.75h-24.99V479.266c0-7.5-5-12.495-12.495-12.495s-12.495,5-12.495,12.495V516.75Zm49.979,24.99h74.969V716.666H122.417ZM47.449,741.656H272.355v274.885H47.449ZM97.428,1041.53H222.376V1591.3H97.428Zm149.937,0h24.99v12.495c0,7.5,5,12.495,12.495,12.495s12.495-5,12.495-12.495V1041.53h24.99v12.495c0,7.5,5,12.495,12.495,12.495s12.495-5,12.495-12.495V1041.53h24.99V1591.3H247.365Zm149.937,0h24.989v12.495c0,7.5,5,12.495,12.495,12.495s12.495-5,12.495-12.495V1041.53h24.99v12.495c0,7.5,5,12.495,12.495,12.495s12.495-5,12.495-12.495V1041.53h24.99v12.495c0,7.5,5,12.495,12.495,12.495s12.495-5,12.495-12.495V1041.53h24.99v12.495c0,7.5,5,12.495,12.495,12.495s12.495-5,12.495-12.495V1041.53h24.99v12.495c0,7.5,5,12.495,12.495,12.495s12.495-5,12.495-12.495V1041.53h24.99v12.495c0,7.5,5,12.495,12.495,12.495s12.495-5,12.495-12.495V1041.53h24.99v12.495c0,7.5,5,12.495,12.495,12.495s12.495-5,12.495-12.495V1041.53h24.99v12.495c0,7.5,5,12.495,12.495,12.495s12.495-5,12.495-12.495V1041.53h24.99v12.495c0,7.5,5,12.495,12.495,12.495s12.495-5,12.495-12.495V1041.53H872.1v12.495c0,7.5,5,12.495,12.495,12.495s12.495-5,12.495-12.495V1041.53h24.99V1591.3H872.1V1343.9c0-84.965-47.48-162.432-129.946-207.413l-77.468-42.482c-5-2.5-7.5-2.5-12.495,0l-77.468,42.482c-79.967,44.981-129.946,122.449-129.946,207.413v247.4H394.8V1041.53ZM847.114,1591.3H472.271V1343.9c0-74.969,42.482-144.939,114.952-184.923L659.693,1119l69.971,39.983c72.47,39.983,117.451,109.954,117.451,184.923Zm99.958-549.77h24.99v12.495c0,7.5,5,12.495,12.495,12.495s12.495-5,12.495-12.495V1041.53h24.99v12.495c0,7.5,5,12.495,12.495,12.495s12.495-5,12.495-12.495V1041.53h24.99V1591.3H947.072Zm274.885,549.77H1097.01V1041.53h124.948Z" transform="translate(-22.459 -16.959)"/>
      <path id="Path_3" data-name="Path 3" class="cls-1" d="M219.048,372.074c19.992,0,37.484-17.493,37.484-37.484s-17.493-37.484-37.484-37.484S181.563,314.6,181.563,334.59,199.056,372.074,219.048,372.074Zm0-49.979c7.5,0,12.495,5,12.495,12.495s-5,12.495-12.495,12.495-12.495-5-12.495-12.495S211.551,322.1,219.048,322.1ZM618.88,372.074c19.992,0,37.484-17.493,37.484-37.484s-17.493-37.484-37.484-37.484S581.4,314.6,581.4,334.59,598.889,372.074,618.88,372.074Zm0-49.979c7.5,0,12.495,5,12.495,12.495s-5,12.495-12.495,12.495-12.495-5-12.495-12.495S611.384,322.1,618.88,322.1ZM418.964,47.21c-19.991,0-37.484,17.493-37.484,37.484s17.493,37.484,37.484,37.484,37.484-17.493,37.484-37.484S438.956,47.21,418.964,47.21Zm0,49.979c-7.5,0-12.495-5-12.495-12.495s5-12.495,12.495-12.495,12.495,5,12.495,12.495S426.461,97.189,418.964,97.189ZM69.11,547c-19.992,0-37.484,17.493-37.484,37.484v49.979c0,7.5,5,12.495,12.495,12.495H94.1c7.5,0,12.495-5,12.495-12.495V584.485C106.595,564.494,89.1,547,69.11,547ZM81.605,621.97H56.616V584.485c0-7.5,5-12.495,12.495-12.495s12.495,5,12.495,12.495ZM69.11,671.949c-19.992,0-37.484,17.493-37.484,37.484v49.979c0,7.5,5,12.495,12.495,12.495H94.1c7.5,0,12.495-5,12.495-12.495V709.433C106.595,689.442,89.1,671.949,69.11,671.949Zm12.495,74.969H56.616V709.433c0-7.5,5-12.495,12.495-12.495s12.495,5,12.495,12.495ZM768.818,297.106c-19.992,0-37.484,17.493-37.484,37.484v49.979c0,7.5,5,12.495,12.495,12.495h49.979c7.5,0,12.495-5,12.495-12.495V334.59C806.3,314.6,788.81,297.106,768.818,297.106Zm12.495,74.969h-24.99V334.59c0-7.5,5-12.495,12.495-12.495s12.495,5,12.495,12.495Zm-12.495,49.979c-19.992,0-37.484,17.493-37.484,37.484v49.979c0,7.5,5,12.495,12.495,12.495h49.979c7.5,0,12.495-5,12.495-12.495V459.538C806.3,439.546,788.81,422.053,768.818,422.053Zm12.495,74.969h-24.99V459.538c0-7.5,5-12.495,12.495-12.495s12.495,5,12.495,12.495ZM768.818,671.949c-19.992,0-37.484,17.493-37.484,37.484v49.979c0,7.5,5,12.495,12.495,12.495h49.979c7.5,0,12.495-5,12.495-12.495V709.433C806.3,689.442,788.81,671.949,768.818,671.949Zm12.495,74.969h-24.99V709.433c0-7.5,5-12.495,12.495-12.495s12.495,5,12.495,12.495ZM768.818,547c-19.992,0-37.484,17.493-37.484,37.484v49.979c0,7.5,5,12.495,12.495,12.495h49.979c7.5,0,12.495-5,12.495-12.495V584.485C806.3,564.494,788.81,547,768.818,547Zm12.495,74.969h-24.99V584.485c0-7.5,5-12.495,12.495-12.495s12.495,5,12.495,12.495Z" transform="translate(218.269 777.445)"/>
    </g>
  </g>
</svg>
