<svg id="Group_32" data-name="Group 32" xmlns="http://www.w3.org/2000/svg" width="448.76" height="560.933" viewBox="0 0 448.76 560.933">
  <g id="Group_6" data-name="Group 6" transform="translate(0 216.164)">
    <g id="Group_5" data-name="Group 5">
      <path id="Path_2" data-name="Path 2" d="M86.669,197.308H59.41a8.217,8.217,0,1,0,0,16.433H86.67a8.217,8.217,0,1,0,0-16.433Z" transform="translate(-51.193 -197.308)" fill="#ff8000"/>
    </g>
  </g>
  <g id="Group_8" data-name="Group 8" transform="translate(405.068 216.164)">
    <g id="Group_7" data-name="Group 7" transform="translate(0)">
      <path id="Path_3" data-name="Path 3" d="M456.4,197.308H429.144a8.217,8.217,0,1,0,0,16.433H456.4a8.217,8.217,0,1,0,0-16.433Z" transform="translate(-420.927 -197.308)" fill="#ff8000"/>
    </g>
  </g>
  <g id="Group_10" data-name="Group 10" transform="translate(63.311 349.74)">
    <g id="Group_9" data-name="Group 9">
      <path id="Path_4" data-name="Path 4" d="M142.285,321.639a8.219,8.219,0,0,0-11.622,0l-19.275,19.276a8.218,8.218,0,0,0,11.622,11.621l19.275-19.276A8.215,8.215,0,0,0,142.285,321.639Z" transform="translate(-108.981 -319.232)" fill="#ff8000"/>
    </g>
  </g>
  <g id="Group_12" data-name="Group 12" transform="translate(216.163)">
    <g id="Group_11" data-name="Group 11">
      <path id="Path_5" data-name="Path 5" d="M256.717,0A8.216,8.216,0,0,0,248.5,8.217v27.26a8.217,8.217,0,0,0,16.434,0V8.217A8.215,8.215,0,0,0,256.717,0Z" transform="translate(-248.5)" fill="#ff8000"/>
    </g>
  </g>
  <g id="Group_14" data-name="Group 14" transform="translate(349.739 349.74)">
    <g id="Group_13" data-name="Group 13">
      <path id="Path_6" data-name="Path 6" d="M403.728,340.914l-19.275-19.275a8.218,8.218,0,1,0-11.622,11.621l19.275,19.275a8.217,8.217,0,1,0,11.622-11.62Z" transform="translate(-370.424 -319.232)" fill="#ff8000"/>
    </g>
  </g>
  <g id="Group_16" data-name="Group 16" transform="translate(63.311 63.314)">
    <g id="Group_15" data-name="Group 15">
      <path id="Path_7" data-name="Path 7" d="M142.285,79.473,123.01,60.2a8.217,8.217,0,0,0-11.622,11.621l19.275,19.275a8.217,8.217,0,1,0,11.622-11.621Z" transform="translate(-108.981 -57.791)" fill="#ff8000"/>
    </g>
  </g>
  <g id="Group_21" data-name="Group 21" transform="translate(59.311 52.119)">
    <g id="Group_18" data-name="Group 18" transform="translate(66.633)">
      <g id="Group_17" data-name="Group 17">
        <path id="Path_8" data-name="Path 8" d="M460.245,47.573H412.767a20.069,20.069,0,1,0,0,40.137h.129l-23.272,23.669A165.987,165.987,0,0,0,284.754,55.267a8.217,8.217,0,1,0-1.99,16.313,149.444,149.444,0,0,1,95.3,51.553l-85.773,87.234-26.27-18.655a20.042,20.042,0,0,0-26.615,3.024L171.214,271.4A20.069,20.069,0,0,0,201.2,298.073l56.239-63.222,25.549,18.144a19.985,19.985,0,0,0,25.93-2.292L400.1,157.974a147.43,147.43,0,0,1,11.533,39.469,8.217,8.217,0,0,0,16.261-2.379,163.637,163.637,0,0,0-15.537-49.559l27.816-28.29v.263a20.07,20.07,0,0,0,40.139,0V67.642A20.089,20.089,0,0,0,460.245,47.573Zm3.635,69.907c0,4.8-7.269,4.805-7.269,0V97.14a8.225,8.225,0,0,0-14.077-5.76l-145.324,147.8a3.619,3.619,0,0,1-4.7.415l-31.554-22.408a8.219,8.219,0,0,0-10.9,1.238l-61.134,68.725a3.634,3.634,0,0,1-5.431-4.831l68.191-76.66a3.67,3.67,0,0,1,4.82-.547l31.979,22.71a8.233,8.233,0,0,0,10.617-.939L438.362,85.254A8.225,8.225,0,0,0,432.5,71.276H412.769c-4.8,0-4.8-7.269,0-7.269h47.478a3.638,3.638,0,0,1,3.634,3.634V117.48Z" transform="translate(-166.15 -47.573)" fill="#ff8000"/>
      </g>
    </g>
    <g id="Group_20" data-name="Group 20" transform="translate(0 7.653)">
      <g id="Group_19" data-name="Group 19">
        <path id="Path_9" data-name="Path 9" d="M427.3,225.755a8.217,8.217,0,0,0-8.978,7.376,149.584,149.584,0,0,1-69,111.29A55.278,55.278,0,0,0,323.2,391.439v33.818H217.6V390.692a54.108,54.108,0,0,0-25.316-45.767,148.647,148.647,0,0,1,59.95-273.993,8.217,8.217,0,1,0-2.021-16.309A165.069,165.069,0,0,0,183.635,358.9a37.558,37.558,0,0,1,17.532,31.793v35.761a21.385,21.385,0,0,0-14.379,20.168v11.714a21.238,21.238,0,0,0,4.56,13.148,21.234,21.234,0,0,0-4.56,13.148v11.713a21.389,21.389,0,0,0,21.365,21.365h25.833v18.575a19.454,19.454,0,0,0,19.432,19.433h33.958a19.454,19.454,0,0,0,19.432-19.433V517.71h25.833a21.39,21.39,0,0,0,21.365-21.365V484.633a21.237,21.237,0,0,0-4.56-13.148,21.235,21.235,0,0,0,4.56-13.148V446.624a21.384,21.384,0,0,0-14.379-20.168V391.441a38.931,38.931,0,0,1,18.427-33.1,165.039,165.039,0,0,0,76.615-123.6A8.212,8.212,0,0,0,427.3,225.755ZM290.379,536.282h0a3.041,3.041,0,0,1-3,3H253.422a3.038,3.038,0,0,1-3-3V517.707h39.954Zm47.2-39.94a5,5,0,0,1-4.93,4.93H208.154a5,5,0,0,1-4.93-4.93V484.63a5,5,0,0,1,4.93-4.93H332.645a5,5,0,0,1,4.93,4.93Zm0-38.008a5,5,0,0,1-4.93,4.93H208.154a5,5,0,0,1-4.93-4.93V446.62a5,5,0,0,1,4.93-4.93H332.645a5,5,0,0,1,4.93,4.93v11.714Z" transform="translate(-105.33 -54.559)" fill="#ff8000"/>
      </g>
    </g>
  </g>
</svg>
