<svg xmlns="http://www.w3.org/2000/svg" width="438.929" height="585.26" viewBox="0 0 438.929 585.26">
  <g id="fire-outline" transform="translate(0)">
    <g id="Group_36" data-name="Group 36">
      <path id="Path_26" data-name="Path 26" d="M502.1,348.4l-.417-5.727c-6.7-87.276-47.341-141.988-83.192-190.246-33.2-44.686-61.867-83.275-61.867-140.214a12.212,12.212,0,0,0-6.621-10.847,12.075,12.075,0,0,0-12.668.929C283.5,40.825,238.574,105.765,222.881,167.727c-10.894,43.138-12.336,91.634-12.538,123.664-49.722-10.621-60.986-85-61.1-85.812a12.191,12.191,0,0,0-17.4-9.252c-2.607,1.262-64,32.458-67.571,157.026-.25,4.144-.262,8.287-.262,12.442,0,121.008,98.456,219.464,219.464,219.464S502.938,486.8,502.938,365.795C502.938,359.723,502.522,354.056,502.1,348.4ZM283.473,560.875c-40.34,0-73.155-34.958-73.155-77.929,0-1.464-.011-2.941.095-4.75.488-18.122,3.93-30.493,7.7-38.721,7.073,15.193,19.729,29.159,40.257,29.159a12.186,12.186,0,0,0,12.193-12.193c0-17.361.358-37.387,4.68-55.462,3.846-16.038,13.038-33.077,24.683-46.746,5.179,17.741,15.277,32.1,25.135,46.115,14.11,20.051,28.7,40.78,31.255,76.131.154,2.1.31,4.2.31,6.465C356.628,525.917,323.814,560.875,283.473,560.875Zm77.055-15.931a104.48,104.48,0,0,0,20.486-62c0-2.869-.178-5.537-.536-10.525-2.893-39.8-20.194-64.4-35.47-86.109-13.014-18.48-24.242-34.446-24.242-57.093a12.189,12.189,0,0,0-19.539-9.727c-23.384,17.669-42.888,47.412-49.7,75.81-3.477,14.562-4.691,30.315-5.12,43.269-8.454-9.1-11.074-25.956-11.1-26.183a12.218,12.218,0,0,0-17.645-9.2c-3.073,1.572-30.064,17.051-31.612,73.988-.107,1.929-.119,3.858-.119,5.775a104.48,104.48,0,0,0,20.486,62C137.08,515,88.4,446,88.4,365.8c0-3.655-.011-7.3.238-11.36,2.1-73.084,25.481-109.328,40.745-125.318,10.644,38.1,38.53,87.907,93.134,87.907a12.186,12.186,0,0,0,12.193-12.193c0-40.8.917-87.955,11.824-131.129,12.383-48.913,46.3-101.731,87.252-137.486,6.8,52.223,35.244,90.515,65.142,130.747,35.542,47.841,72.286,97.313,78.441,177.422l.417,5.834c.381,5.073.774,10.133.774,15.574C478.553,446,429.87,515,360.528,544.944Z" transform="translate(-64.009 0.001)" fill="#f96262"/>
    </g>
  </g>
</svg>
