<svg xmlns="http://www.w3.org/2000/svg" width="573.485" height="569.086" viewBox="0 0 573.485 569.086">
  <g id="Group_35" data-name="Group 35" transform="translate(0)">
    <path id="Path_19" data-name="Path 19" d="M388.875,569.441h180.21V550.472H398.36V284.9h9.485V460.366a61.651,61.651,0,1,0,123.3,0V133.142h9.485a9.485,9.485,0,0,0,9.485-9.485V66.748a9.485,9.485,0,0,0-9.485-9.485h-4.742l10.3-24.791,27.3-14.227L564.723,1.42,534.37,17.231a9.559,9.559,0,0,0-4.381,4.742l-14.663,35.29H502.693a9.485,9.485,0,0,0-9.485,9.485v56.909a9.485,9.485,0,0,0,9.485,9.485h9.485V460.366a42.681,42.681,0,1,1-85.363,0V284.9H436.3a9.485,9.485,0,0,0,9.485-9.485V209.02a9.485,9.485,0,0,0-9.485-9.485H398.36V9.84A9.485,9.485,0,0,0,388.875.355H123.3a9.485,9.485,0,0,0-9.485,9.485v189.7H75.878a9.485,9.485,0,0,0-9.485,9.485v13.611l-6.28,3.274a9.538,9.538,0,0,0-4.381,4.742L41.088,265.928H28.454a9.485,9.485,0,0,0-9.485,9.485v56.909a9.485,9.485,0,0,0,9.485,9.485h9.485v156.5a33.2,33.2,0,1,0,66.393,0V284.9h9.485V550.471H0v18.969Zm123.3-493.208h18.969v37.939H512.177ZM426.815,218.5v47.424H398.36V218.5ZM132.787,19.325h246.6V512.532h-246.6ZM66.393,254.471v11.458H61.651ZM37.939,284.9h18.97v37.939H37.939ZM85.363,498.305a14.227,14.227,0,0,1-28.454,0v-156.5h9.485a9.485,9.485,0,0,0,9.485-9.485V284.9h9.485Zm0-232.377V218.5h28.454v47.424ZM132.787,531.5h246.6v18.97h-246.6Zm0,0" transform="translate(0 -0.355)" fill="#0ebc1a"/>
    <path id="Path_20" data-name="Path 20" d="M137.485,222.05h189.7a9.485,9.485,0,0,0,9.485-9.485V41.84a9.485,9.485,0,0,0-9.485-9.485h-189.7A9.485,9.485,0,0,0,128,41.84V212.566A9.485,9.485,0,0,0,137.485,222.05ZM317.7,165.142H262.079L296.535,123.8l-14.588-12.162-44.58,53.5h-90.4v-59.97l19.794-7.91a175.626,175.626,0,0,1,131.138,0l19.794,7.91ZM146.97,203.081v-18.97H317.7v18.97ZM317.7,51.325V84.739l-12.759-5.1a194.751,194.751,0,0,0-145.208,0l-12.759,5.1V51.325Zm0,0" transform="translate(23.756 5.584)" fill="#0ebc1a"/>
    <path id="Path_21" data-name="Path 21" d="M235.456,243.251a9.748,9.748,0,0,0-13.667,0l-37.67,39.116a58.8,58.8,0,0,0-4.534,75.391,60.794,60.794,0,0,0,98.062,0,58.8,58.8,0,0,0-4.525-75.391Zm27.023,103.138a41.844,41.844,0,0,1-67.708,0A39.684,39.684,0,0,1,197.8,295.51l30.835-32.02,30.835,32.02A39.688,39.688,0,0,1,262.479,346.388Zm0,0" transform="translate(31.188 44.206)" fill="#0ebc1a"/>
  </g>
</svg>
