<svg xmlns="http://www.w3.org/2000/svg" width="1600.21" height="1243.79" viewBox="0 0 1600.21 1243.79">
  <defs>
    <style>
      .cls-1 {
        fill: #fff;
      }
    </style>
  </defs>
  <g id="gatewayofindia" transform="translate(-16.959 -30.709)">
    <g id="Layer_1" transform="translate(16.959 30.709)">
      <path id="Path_1" data-name="Path 1" class="cls-1" d="M1603.426,1249.116h-63.459V716.063h38.075a13.959,13.959,0,0,0,12.692-7.615l25.383-76.151c2.538-5.077,0-7.615-2.538-12.692-2.539-2.538-5.077-5.077-10.154-5.077h-63.459V513h12.692c7.615,0,12.691-5.077,12.691-12.692v-76.15c0-7.615-5.076-12.692-12.691-12.692H1184.6V322.619c0-7.615-5.077-12.692-12.692-12.692h-12.692V132.243c0-22.845-15.23-43.152-38.075-48.229V43.4c0-7.615-5.077-12.692-12.692-12.692s-12.692,5.077-12.692,12.692V84.015c-22.845,5.077-38.075,25.384-38.075,48.229V233.777H575.4V132.243c0-22.845-15.23-43.152-38.075-48.229V43.4c0-7.615-5.077-12.692-12.692-12.692S511.936,35.786,511.936,43.4V84.015c-22.845,5.077-38.075,25.384-38.075,48.229V309.928H461.17c-7.615,0-12.692,5.077-12.692,12.692v88.842H80.418c-7.615,0-12.692,5.077-12.692,12.692V500.3C67.726,507.919,72.8,513,80.418,513H93.109V614.529H29.651c-5.077,0-7.615,2.538-10.153,5.077s-2.538,7.615-2.538,12.692l25.383,76.151a13.959,13.959,0,0,0,12.692,7.615H93.109v533.053H29.651c-7.615,0-12.692,5.077-12.692,12.692s5.077,12.692,12.692,12.692H1603.426c7.615,0,12.692-5.077,12.692-12.692S1611.041,1249.116,1603.426,1249.116ZM1567.889,690.68H1184.6V639.913h401.059ZM600.779,335.311H1032.3v152.3H600.779Zm558.436,0v152.3H1057.681v-152.3h101.534ZM727.7,513V614.529H676.929V513Zm25.383,0h50.767V614.529H753.08Zm76.151,0H880V614.529H829.23Zm76.15,0h50.767V614.529H905.38Zm76.15,0H1032.3V614.529H981.531Zm76.15,101.534V513h101.534V614.529ZM651.546,513V614.529H600.779V513ZM575.4,614.529H473.861V513H575.4Zm0,25.383V690.68H473.861V639.913Zm482.286,0h101.534V690.68H1057.681Zm456.9-25.383H1184.6V513h329.985Zm25.384-177.684v50.767H1184.6V436.845Zm-456.9-126.917V183.01h50.767V309.928Zm25.383-203.068c15.23,0,25.383,10.153,25.383,25.384v25.383h-50.767V132.243C1083.065,117.013,1093.218,106.86,1108.448,106.86Zm-50.767,152.3v50.767H575.4V259.161ZM524.628,106.86c15.23,0,25.384,10.153,25.384,25.384v25.383H499.245V132.243C499.245,117.013,509.4,106.86,524.628,106.86Zm-25.383,76.15h50.767V309.928H499.245Zm-12.692,152.3H575.4v152.3H473.861V424.153h0V335.311ZM93.109,436.845H448.478v50.767H93.109ZM118.493,513H448.478V614.529H118.493ZM47.419,639.913H448.478V690.68H65.188Zm71.074,76.15H448.478v533.053H410.4V959.744h0c0-68.535-38.075-129.456-101.534-159.916-7.615-5.077-17.768-5.077-27.922,0-60.92,30.46-99,91.381-101.534,159.916h0v289.372H115.954V716.063Zm114.226,533.053H207.335V969.9H385.019v279.218H359.636V1084.124c0-66-55.844-86.3-58.382-88.842h-7.615c-2.538,0-60.92,22.845-60.92,88.842v164.992Zm-25.383-304.6c5.077-53.305,35.537-101.534,86.3-126.917h5.077c48.229,25.383,81.227,71.074,86.3,126.917Zm50.767,304.6V1084.124c0-38.075,27.922-55.844,38.075-63.459,12.692,7.615,38.075,25.384,38.075,63.459v164.992Zm215.759,0V716.063H575.4v533.053Zm177.684,0V972.436c0-76.15,38.075-147.224,104.072-187.838l60.92-40.613,60.92,38.075c66,40.613,104.072,111.687,104.072,190.376v279.218H651.546Zm238.6-487.363L821.615,718.6c-5.077-2.538-10.153-2.538-12.692,0l-68.536,43.152c-71.074,45.69-114.226,124.379-114.226,210.683v276.68H600.779v-609.2H1032.3v609.2h-25.383V969.9C1006.914,886.132,963.762,807.444,890.15,761.753Zm167.531,487.363V716.063h101.534v533.053ZM1248.057,969.9h177.684v279.218h-25.383V1084.124c0-66-55.843-86.3-58.382-88.842h-7.615c-2.538,0-60.92,22.845-60.92,88.842v164.992h-25.383Zm0-25.383c5.077-53.305,35.537-101.534,86.3-126.917h5.077c48.229,25.383,81.227,71.074,86.3,126.917Zm50.767,304.6V1084.124c0-38.075,27.922-55.844,38.075-63.459,12.692,7.615,38.075,25.384,38.075,63.459v164.992Zm152.3,0V959.744h0c0-68.535-38.075-129.456-101.534-162.454-7.615-5.077-17.768-5.077-27.922,0-60.92,30.46-101.534,93.919-101.534,162.454v289.372H1182.06V716.063h329.985v533.053Z" transform="translate(-16.959 -30.709)"/>
    </g>
  </g>
</svg>
