<svg xmlns="http://www.w3.org/2000/svg" width="512.001" height="456.406" viewBox="0 0 512.001 456.406">
  <defs>
    <style>
      .cls-1 {
        fill: #333;
      }
    </style>
  </defs>
  <g id="home" transform="translate(0.001 -27.797)">
    <g id="Group_2" data-name="Group 2">
      <g id="Group_1" data-name="Group 1">
        <path id="Path_1" data-name="Path 1" class="cls-1" d="M506.555,208.064l-242.7-177.7a13.3,13.3,0,0,0-15.716,0l-242.7,177.7a13.3,13.3,0,0,0,15.718,21.468L256,57.588,490.837,229.531a13.3,13.3,0,0,0,15.718-21.467Z"/>
      </g>
    </g>
    <g id="Group_4" data-name="Group 4">
      <g id="Group_3" data-name="Group 3">
        <path id="Path_2" data-name="Path 2" class="cls-1" d="M442.246,232.543a13.3,13.3,0,0,0-13.3,13.3V457.595H322.521V342.009a66.52,66.52,0,0,0-133.04,0V457.6H83.058V245.847a13.3,13.3,0,0,0-26.606,0V470.9a13.3,13.3,0,0,0,13.3,13.3H202.784a13.3,13.3,0,0,0,13.251-12.267,10.035,10.035,0,0,0,.052-1.036V342.01a39.914,39.914,0,0,1,79.828,0V470.9a9.759,9.759,0,0,0,.052,1.024A13.3,13.3,0,0,0,309.218,484.2H442.247a13.3,13.3,0,0,0,13.3-13.3V245.847A13.3,13.3,0,0,0,442.246,232.543Z"/>
      </g>
    </g>
  </g>
</svg>
