<svg xmlns="http://www.w3.org/2000/svg" width="484.884" height="559.482" viewBox="0 0 484.884 559.482">
  <g id="Group_34" data-name="Group 34" transform="translate(0 0)">
    <path id="Path_12" data-name="Path 12" d="M192,432h18.649v18.649H192Zm0,0" transform="translate(31.793 71.534)" fill="#01a3ff"/>
    <path id="Path_13" data-name="Path 13" d="M144,400H274.546v18.649H144Zm0,0" transform="translate(23.844 66.235)" fill="#01a3ff"/>
    <path id="Path_14" data-name="Path 14" d="M153.325,397.247h37.3V378.6H162.649v-18.65h27.974a9.325,9.325,0,0,0,9.325-9.324v-37.3A9.325,9.325,0,0,0,190.624,304h-37.3v18.65H181.3V341.3H153.325A9.325,9.325,0,0,0,144,350.624v37.3A9.325,9.325,0,0,0,153.325,397.247Zm0,0" transform="translate(23.844 50.339)" fill="#01a3ff"/>
    <path id="Path_15" data-name="Path 15" d="M253.3,304H216v18.65h27.974V341.3H216v18.649h27.974V378.6H216v18.649h37.3a9.325,9.325,0,0,0,9.325-9.325v-74.6A9.325,9.325,0,0,0,253.3,304Zm0,0" transform="translate(35.767 50.339)" fill="#01a3ff"/>
    <g id="Group_33" data-name="Group 33">
      <path id="Path_10" data-name="Path 10" d="M410.287,186.494H456.91a9.325,9.325,0,0,0,9.325-9.325V9.325A9.325,9.325,0,0,0,456.91,0H9.325A9.325,9.325,0,0,0,0,9.325V177.169a9.325,9.325,0,0,0,9.325,9.325H55.948v18.649a9.325,9.325,0,0,0,9.325,9.325H400.962a9.325,9.325,0,0,0,9.325-9.325ZM18.649,18.649H447.585V111.9H18.649Zm0,149.2v-37.3H447.585v37.3h-37.3V158.52a9.325,9.325,0,0,0-9.325-9.325H65.273a9.325,9.325,0,0,0-9.325,9.325v9.325Zm372.988,27.974H74.6V167.845h317.04Zm0,0" transform="translate(0 0)" fill="#01a3ff"/>
      <path id="Path_11" data-name="Path 11" d="M139.974,240A27.976,27.976,0,0,0,112,267.974V491.767a27.976,27.976,0,0,0,27.974,27.974h149.2a27.976,27.976,0,0,0,27.974-27.974V267.974A27.975,27.975,0,0,0,289.169,240Zm158.52,27.974V491.767a9.325,9.325,0,0,1-9.325,9.324h-149.2a9.325,9.325,0,0,1-9.325-9.324V267.974a9.325,9.325,0,0,1,9.325-9.325h149.2A9.325,9.325,0,0,1,298.494,267.974Zm0,0" transform="translate(18.546 39.741)" fill="#01a3ff"/>
      <path id="Path_16" data-name="Path 16" d="M422.139,361.709a101.834,101.834,0,0,0-30.046-72.526l-13.172,13.195a83.927,83.927,0,0,1,0,118.694l13.172,13.2a101.908,101.908,0,0,0,30.046-72.567Zm0,0" transform="translate(62.745 47.885)" fill="#01a3ff"/>
      <path id="Path_17" data-name="Path 17" d="M369.458,404.123a65.274,65.274,0,0,0,0-92.314L356.281,325a46.625,46.625,0,0,1,0,65.924Zm0,0" transform="translate(58.995 51.631)" fill="#01a3ff"/>
      <path id="Path_18" data-name="Path 18" d="M312.194,335.524a27.974,27.974,0,1,0,39.566,0A28.652,28.652,0,0,0,312.194,335.524Zm26.372,26.38a9.526,9.526,0,0,1-13.186,0,9.32,9.32,0,1,1,13.186.009Zm0,0" transform="translate(50.339 54.246)" fill="#01a3ff"/>
    </g>
  </g>
</svg>
