<svg xmlns="http://www.w3.org/2000/svg" width="580.745" height="512.988" viewBox="0 0 580.745 512.988">
  <defs>
    <style>
      .cls-1 {
        fill: #a50202;
      }
    </style>
  </defs>
  <g id="Diesel_generator" data-name="Diesel generator" transform="translate(0 -29.868)">
    <g id="Group_143" data-name="Group 143" transform="translate(0 29.868)">
      <g id="Group_142" data-name="Group 142">
        <path id="Path_57" data-name="Path 57" class="cls-1" d="M256.752,200.533H82.529A19.378,19.378,0,0,0,63.17,219.892H53.492A19.378,19.378,0,0,0,34.133,239.25v19.358a19.378,19.378,0,0,0,19.358,19.358H63.17V336.04H53.492A19.378,19.378,0,0,0,34.133,355.4v19.358a19.378,19.378,0,0,0,19.358,19.358H63.17a19.378,19.378,0,0,0,19.358,19.358H256.752a19.378,19.378,0,0,0,19.358-19.358V219.892A19.379,19.379,0,0,0,256.752,200.533ZM63.17,374.756H53.492V355.4H63.17Zm0-116.148H53.492V239.249H63.17ZM82.529,394.115V219.892H256.752l.014,174.223Z" transform="translate(4.583 -6.954)"/>
        <path id="Path_58" data-name="Path 58" class="cls-1" d="M142.261,311.467H103.546a9.678,9.678,0,1,0,0,19.357h38.716a9.678,9.678,0,1,0,0-19.357Z" transform="translate(12.603 7.941)"/>
        <path id="Path_59" data-name="Path 59" class="cls-1" d="M142.261,337.067H103.546a9.679,9.679,0,0,0,0,19.357h38.716a9.679,9.679,0,1,0,0-19.357Z" transform="translate(12.603 11.378)"/>
        <path id="Path_60" data-name="Path 60" class="cls-1" d="M205.946,277.333a9.679,9.679,0,0,0-9.678,9.679V306.37a9.679,9.679,0,0,0,19.357,0V287.012A9.679,9.679,0,0,0,205.946,277.333Z" transform="translate(26.352 3.358)"/>
        <path id="Path_61" data-name="Path 61" class="cls-1" d="M429.077,183.467H283.891a19.377,19.377,0,0,0-19.358,19.358v77.432a19.378,19.378,0,0,0,19.358,19.359H429.077a19.378,19.378,0,0,0,19.358-19.359V202.824A19.377,19.377,0,0,0,429.077,183.467Zm-145.186,96.79V202.824H429.077l.013,77.433Z" transform="translate(35.517 -9.245)"/>
        <path id="Path_62" data-name="Path 62" class="cls-1" d="M429.077,302.933H283.891a19.378,19.378,0,0,0-19.358,19.359v77.433a19.378,19.378,0,0,0,19.358,19.358H429.077a19.378,19.378,0,0,0,19.358-19.358V322.292A19.378,19.378,0,0,0,429.077,302.933ZM283.891,399.725V322.292H429.077l.013,77.433Z" transform="translate(35.517 6.795)"/>
        <path id="Path_63" data-name="Path 63" class="cls-1" d="M362.983,337.067H333.946a9.679,9.679,0,1,0,0,19.357h29.037a9.679,9.679,0,0,0,0-19.357Z" transform="translate(43.537 11.378)"/>
        <path id="Path_64" data-name="Path 64" class="cls-1" d="M571.065,523.5H503.312V494.462A19.378,19.378,0,0,0,522.67,475.1V146.016h29.037a9.678,9.678,0,0,0,9.49-7.779l19.358-96.79a9.678,9.678,0,0,0-9.489-11.579H503.314A87.213,87.213,0,0,0,416.2,116.979v48.4H319.409V146.017a67.83,67.83,0,0,0-67.753-67.753h-9.679a9.679,9.679,0,0,0-9.679-9.679H116.149a9.678,9.678,0,0,0-9.679,9.679H9.679A9.676,9.676,0,0,0,0,87.941v38.716a9.678,9.678,0,0,0,9.679,9.679H38.716v29.037H19.358A19.378,19.378,0,0,0,0,184.731V475.1a19.378,19.378,0,0,0,19.358,19.359V523.5H9.679a9.679,9.679,0,0,0,0,19.357H571.064a9.679,9.679,0,0,0,0-19.357Zm-48.4-474.275h36.589l-15.487,77.433h-21.1Zm-87.112,67.754a67.83,67.83,0,0,1,67.753-67.753v77.432H435.558Zm0,29.037h67.753v19.358H435.558ZM241.976,97.62h9.679a48.453,48.453,0,0,1,48.4,48.4v19.358H241.976ZM125.827,87.941h96.79v38.716h-96.79Zm-9.679,58.074h106.47v19.358H58.074V136.337h48.4A9.679,9.679,0,0,0,116.149,146.016Zm-96.79-29.037V97.62H106.47v19.359Zm0,67.753H503.312l.015,290.372H19.358ZM483.953,523.5H38.716V494.462H483.952V523.5Z" transform="translate(0 -29.868)"/>
      </g>
    </g>
  </g>
</svg>
