<svg xmlns="http://www.w3.org/2000/svg" width="322.279" height="402.837" viewBox="0 0 322.279 402.837">
  <defs>
    <style>
      .cls-1 {
        fill: #9c3ff8;
      }
    </style>
  </defs>
  <g id="Electricity" transform="translate(-51.193)">
    <g id="Group_118" data-name="Group 118" transform="translate(51.193 155.239)">
      <g id="Group_117" data-name="Group 117" transform="translate(0)">
        <path id="Path_39" data-name="Path 39" class="cls-1" d="M76.67,197.308H57.094a5.9,5.9,0,0,0,0,11.8H76.671a5.9,5.9,0,1,0,0-11.8Z" transform="translate(-51.193 -197.308)"/>
      </g>
    </g>
    <g id="Group_120" data-name="Group 120" transform="translate(342.094 155.239)">
      <g id="Group_119" data-name="Group 119" transform="translate(0)">
        <path id="Path_40" data-name="Path 40" class="cls-1" d="M446.4,197.308H426.828a5.9,5.9,0,0,0,0,11.8H446.4a5.9,5.9,0,0,0,0-11.8Z" transform="translate(-420.927 -197.308)"/>
      </g>
    </g>
    <g id="Group_122" data-name="Group 122" transform="translate(96.66 251.167)">
      <g id="Group_121" data-name="Group 121">
        <path id="Path_41" data-name="Path 41" class="cls-1" d="M132.9,320.96a5.9,5.9,0,0,0-8.346,0L110.71,334.8a5.9,5.9,0,0,0,8.346,8.346L132.9,329.306A5.9,5.9,0,0,0,132.9,320.96Z" transform="translate(-108.981 -319.232)"/>
      </g>
    </g>
    <g id="Group_124" data-name="Group 124" transform="translate(206.431)">
      <g id="Group_123" data-name="Group 123">
        <path id="Path_42" data-name="Path 42" class="cls-1" d="M254.4,0a5.9,5.9,0,0,0-5.9,5.9V25.478a5.9,5.9,0,1,0,11.8,0V5.9A5.9,5.9,0,0,0,254.4,0Z" transform="translate(-248.5)"/>
      </g>
    </g>
    <g id="Group_126" data-name="Group 126" transform="translate(302.359 251.167)">
      <g id="Group_125" data-name="Group 125" transform="translate(0)">
        <path id="Path_43" data-name="Path 43" class="cls-1" d="M394.342,334.8,380.5,320.961a5.9,5.9,0,0,0-8.346,8.346L386,343.149a5.9,5.9,0,0,0,8.346-8.345Z" transform="translate(-370.424 -319.232)"/>
      </g>
    </g>
    <g id="Group_128" data-name="Group 128" transform="translate(96.66 45.469)">
      <g id="Group_127" data-name="Group 127">
        <path id="Path_44" data-name="Path 44" class="cls-1" d="M132.9,73.362,119.056,59.52a5.9,5.9,0,0,0-8.346,8.345l13.843,13.843a5.9,5.9,0,0,0,8.346-8.346Z" transform="translate(-108.981 -57.791)"/>
      </g>
    </g>
    <g id="Group_130" data-name="Group 130" transform="translate(141.64 37.43)">
      <g id="Group_129" data-name="Group 129" transform="translate(0)">
        <path id="Path_45" data-name="Path 45" class="cls-1" d="M377.356,47.573h-34.1a14.412,14.412,0,1,0,0,28.825h.093l-16.713,17a119.2,119.2,0,0,0-75.313-40.3A5.9,5.9,0,1,0,249.9,64.814a107.324,107.324,0,0,1,68.44,37.023l-61.6,62.648-18.866-13.4a14.393,14.393,0,0,0-19.113,2.172l-48.973,55.054a14.413,14.413,0,0,0,21.538,19.158l40.388-45.4,18.349,13.03a14.352,14.352,0,0,0,18.621-1.646l65.479-66.594a105.872,105.872,0,0,1,8.282,28.345,5.9,5.9,0,0,0,11.678-1.708A117.518,117.518,0,0,0,342.964,117.9l19.976-20.316v.189a14.413,14.413,0,0,0,28.826,0V61.985A14.427,14.427,0,0,0,377.356,47.573Zm2.61,50.2c0,3.448-5.22,3.451-5.22,0V83.17a5.907,5.907,0,0,0-10.109-4.137L260.271,185.176a2.6,2.6,0,0,1-3.372.3l-22.661-16.092a5.9,5.9,0,0,0-7.826.889l-43.9,49.355a2.61,2.61,0,0,1-3.9-3.47L227.58,161.1a2.635,2.635,0,0,1,3.461-.393l22.966,16.309a5.913,5.913,0,0,0,7.625-.674L361.64,74.634A5.907,5.907,0,0,0,357.433,64.6H343.261c-3.448,0-3.45-5.22,0-5.22h34.1a2.613,2.613,0,0,1,2.61,2.61V97.777Z" transform="translate(-166.15 -47.573)"/>
      </g>
    </g>
    <g id="Group_132" data-name="Group 132" transform="translate(93.787 42.926)">
      <g id="Group_131" data-name="Group 131">
        <path id="Path_46" data-name="Path 46" class="cls-1" d="M336.553,177.5a5.9,5.9,0,0,0-6.448,5.3,107.425,107.425,0,0,1-49.552,79.923,39.7,39.7,0,0,0-18.76,33.766v24.287H185.96V295.954a38.858,38.858,0,0,0-18.181-32.868A106.752,106.752,0,0,1,210.832,66.317,5.9,5.9,0,1,0,209.381,54.6a118.545,118.545,0,0,0-47.815,218.519,26.973,26.973,0,0,1,12.591,22.833v25.682a15.358,15.358,0,0,0-10.326,14.484v8.412a15.252,15.252,0,0,0,3.274,9.442,15.251,15.251,0,0,0-3.274,9.442v8.412a15.36,15.36,0,0,0,15.343,15.343h18.552v13.34a13.971,13.971,0,0,0,13.955,13.956h24.387a13.971,13.971,0,0,0,13.955-13.956v-13.34h18.552a15.361,15.361,0,0,0,15.343-15.343v-8.412a15.252,15.252,0,0,0-3.275-9.442,15.25,15.25,0,0,0,3.275-9.442v-8.412a15.357,15.357,0,0,0-10.327-14.484V296.492a27.958,27.958,0,0,1,13.234-23.77,118.523,118.523,0,0,0,55.022-88.767A5.9,5.9,0,0,0,336.553,177.5ZM238.224,400.511h0a2.183,2.183,0,0,1-2.153,2.153H211.683a2.182,2.182,0,0,1-2.153-2.153v-13.34h28.693Zm33.895-28.683a3.588,3.588,0,0,1-3.541,3.541h-89.4a3.588,3.588,0,0,1-3.541-3.541v-8.411a3.588,3.588,0,0,1,3.541-3.541h89.4a3.588,3.588,0,0,1,3.541,3.541Zm0-27.3a3.588,3.588,0,0,1-3.541,3.541h-89.4a3.588,3.588,0,0,1-3.54-3.541V336.12a3.588,3.588,0,0,1,3.54-3.541h89.4a3.588,3.588,0,0,1,3.541,3.541Z" transform="translate(-105.33 -54.559)"/>
      </g>
    </g>
  </g>
</svg>
