<svg xmlns="http://www.w3.org/2000/svg" width="370.315" height="493.771" viewBox="0 0 370.315 493.771">
  <defs>
    <style>
      .cls-1 {
        fill: #ff4600;
      }
    </style>
  </defs>
  <g id="fire-outline" transform="translate(-64.009 0.001)">
    <g id="Group_134" data-name="Group 134" transform="translate(64.009 -0.001)">
      <path id="Path_47" data-name="Path 47" class="cls-1" d="M433.621,293.937l-.352-4.831c-5.656-73.633-39.941-119.792-70.187-160.506-28.007-37.7-52.2-70.258-52.2-118.3A10.3,10.3,0,0,0,305.3,1.152a10.188,10.188,0,0,0-10.688.784c-45.425,32.507-83.327,87.295-96.566,139.571-9.191,36.4-10.407,77.31-10.578,104.332-41.95-8.961-51.453-71.715-51.553-72.4a10.285,10.285,0,0,0-14.677-7.806c-2.2,1.065-53.995,27.384-57.008,132.479-.211,3.5-.221,6.992-.221,10.5,0,102.092,83.065,185.157,185.157,185.157S434.324,410.7,434.324,308.613C434.324,303.49,433.973,298.709,433.621,293.937ZM249.166,473.2c-34.034,0-61.719-29.493-61.719-65.747,0-1.235-.01-2.481.08-4.008.412-15.289,3.315-25.726,6.5-32.668,5.967,12.818,16.645,24.6,33.964,24.6a10.281,10.281,0,0,0,10.287-10.287c0-14.647.3-31.542,3.948-46.792,3.245-13.531,11-27.907,20.824-39.439,4.37,14.968,12.889,27.082,21.206,38.906,11.9,16.917,24.209,34.405,26.37,64.23.13,1.768.261,3.546.261,5.454C310.885,443.7,283.2,473.2,249.166,473.2Zm65.009-13.44a88.147,88.147,0,0,0,17.283-52.307c0-2.421-.151-4.671-.452-8.88-2.441-33.582-17.037-54.336-29.925-72.648-10.979-15.591-20.452-29.061-20.452-48.168a10.284,10.284,0,0,0-16.485-8.207c-19.729,14.907-36.184,40-41.929,63.959-2.934,12.286-3.958,25.576-4.319,36.5-7.132-7.674-9.343-21.9-9.362-22.09a10.309,10.309,0,0,0-14.887-7.765c-2.592,1.326-25.365,14.385-26.67,62.422-.091,1.628-.1,3.255-.1,4.872a88.147,88.147,0,0,0,17.283,52.307c-58.5-25.262-99.575-83.478-99.575-151.143,0-3.084-.01-6.157.2-9.584,1.768-61.659,21.5-92.237,34.376-105.728,8.98,32.145,32.507,74.165,78.575,74.165a10.281,10.281,0,0,0,10.287-10.287c0-34.426.773-74.206,9.975-110.63,10.447-41.267,39.066-85.828,73.612-115.994,5.736,44.06,29.734,76.366,54.959,110.308,29.986,40.362,60.986,82.1,66.179,149.687l.352,4.922c.321,4.28.653,8.549.653,13.139C413.751,376.279,372.678,434.5,314.176,459.757Z" transform="translate(-64.009 0.001)"/>
    </g>
  </g>
</svg>
