<svg xmlns="http://www.w3.org/2000/svg" width="383.756" height="380.812" viewBox="0 0 383.756 380.812">
  <defs>
    <style>
      .cls-1 {
        fill: #09950e;
      }
    </style>
  </defs>
  <g id="Fuel" transform="translate(0 -0.355)">
    <path id="Path_48" data-name="Path 48" class="cls-1" d="M260.221,381.167h120.59V368.473H266.568V190.761h6.347V308.178a41.255,41.255,0,0,0,82.509,0V89.211h6.347a6.347,6.347,0,0,0,6.347-6.347V44.783a6.347,6.347,0,0,0-6.347-6.347H358.6l6.892-16.589,18.266-9.52L377.892,1.068l-20.311,10.58a6.4,6.4,0,0,0-2.932,3.173l-9.812,23.615h-8.454a6.347,6.347,0,0,0-6.347,6.347V82.864a6.347,6.347,0,0,0,6.347,6.347h6.347V308.178a28.561,28.561,0,1,1-57.122,0V190.761h6.347a6.347,6.347,0,0,0,6.347-6.347V139.986a6.347,6.347,0,0,0-6.347-6.347H266.568V6.7A6.347,6.347,0,0,0,260.221.355H82.509A6.347,6.347,0,0,0,76.162,6.7V133.639H50.775a6.347,6.347,0,0,0-6.347,6.347v9.108l-4.2,2.191a6.383,6.383,0,0,0-2.932,3.173l-9.8,23.609H19.04a6.347,6.347,0,0,0-6.347,6.347V222.5a6.347,6.347,0,0,0,6.347,6.347h6.347V333.565a22.214,22.214,0,0,0,44.428,0v-142.8h6.347V368.473H0v12.694ZM342.73,51.13h12.694V76.517H342.73Zm-57.122,95.2v31.734H266.568V146.333ZM88.856,13.049H253.874V343.086H88.856ZM44.428,170.4v7.667H41.255ZM25.387,190.761H38.081v25.387H25.387Zm31.734,142.8a9.52,9.52,0,0,1-19.041,0V228.842h6.347a6.347,6.347,0,0,0,6.347-6.347V190.761h6.347Zm0-155.5V146.333H76.162v31.734ZM88.856,355.779H253.874v12.694H88.856Zm0,0" transform="translate(0 0)"/>
    <path id="Path_49" data-name="Path 49" class="cls-1" d="M134.347,159.292H261.284a6.347,6.347,0,0,0,6.347-6.347V38.7a6.347,6.347,0,0,0-6.347-6.347H134.347A6.347,6.347,0,0,0,128,38.7V152.945A6.347,6.347,0,0,0,134.347,159.292Zm120.59-38.081H217.721l23.057-27.665-9.762-8.138-29.831,35.8h-60.49V81.081l13.245-5.293a117.522,117.522,0,0,1,87.752,0l13.245,5.293ZM140.694,146.6V133.9H254.937V146.6ZM254.937,45.049v22.36L246.4,63.993a130.32,130.32,0,0,0-97.168,0l-8.538,3.415V45.049Zm0,0" transform="translate(-26.45 -6.613)"/>
    <path id="Path_50" data-name="Path 50" class="cls-1" d="M213.152,242.326a6.523,6.523,0,0,0-9.145,0L178.8,268.5a39.345,39.345,0,0,0-3.034,50.449,40.681,40.681,0,0,0,65.62,0,39.348,39.348,0,0,0-3.028-50.449Zm18.083,69.016a28,28,0,0,1-45.308,0,26.555,26.555,0,0,1,2.03-34.046l20.634-21.427L229.224,277.3A26.558,26.558,0,0,1,231.235,311.342Zm0,0" transform="translate(-34.724 -49.615)"/>
  </g>
</svg>
