<svg xmlns="http://www.w3.org/2000/svg" width="297.461" height="358.822" viewBox="0 0 297.461 358.822">
  <defs>
    <style>
      .cls-1 {
        fill: #106dbe;
      }
    </style>
  </defs>
  <g id="Water" transform="translate(-43.777)">
    <g id="Group_139" data-name="Group 139" transform="translate(43.777)">
      <g id="Group_138" data-name="Group 138">
        <path id="Path_54" data-name="Path 54" class="cls-1" d="M217.228,154.518a6.05,6.05,0,0,0-.3-.668l-14.018-27.016a6.032,6.032,0,0,0-10.708,5.557l13.846,26.686a80.181,80.181,0,0,1-72.608,107.86,80.18,80.18,0,0,1-72.607-107.86L133.443,19.131l49.2,94.823a6.033,6.033,0,1,0,10.71-5.556L138.8,3.254a6.034,6.034,0,0,0-10.711,0L49.954,153.85a6.241,6.241,0,0,0-.3.668A92.246,92.246,0,0,0,133.26,279c.061,0,.123,0,.184,0s.123,0,.183,0a92.247,92.247,0,0,0,83.6-124.483Z" transform="translate(-43.777)"/>
        <path id="Path_55" data-name="Path 55" class="cls-1" d="M424.8,244.763a6.157,6.157,0,0,0-.3-.668l-13.743-26.488a6.033,6.033,0,0,0-10.71,5.556l13.568,26.151a35.28,35.28,0,1,1-65.993,0l33-63.6,10.932,21.071a6.032,6.032,0,1,0,10.709-5.556L385.979,169.84a6.033,6.033,0,0,0-10.71,0l-38.526,74.255a6.117,6.117,0,0,0-.3.668,48.541,48.541,0,0,0,43.992,65.5c.062,0,.124,0,.185,0s.123,0,.188,0a48.542,48.542,0,0,0,43.991-65.5Z" transform="translate(-130.411 -49.839)"/>
        <path id="Path_56" data-name="Path 56" class="cls-1" d="M326.426,422.373l-25.671-49.479a6.033,6.033,0,0,0-10.709,0l-25.673,49.479a5.943,5.943,0,0,0-.3.668,34.358,34.358,0,0,0,31.14,46.365l.186,0,.186,0a34.357,34.357,0,0,0,31.136-46.365A6.362,6.362,0,0,0,326.426,422.373Zm-24.09,33.576a21.626,21.626,0,0,1-27.077-28.363l20.14-38.814,20.137,38.814A22.321,22.321,0,0,1,302.335,455.948Z" transform="translate(-109.035 -110.587)"/>
      </g>
    </g>
  </g>
</svg>
