<svg xmlns="http://www.w3.org/2000/svg" width="1600.825" height="1219.259" viewBox="0 0 1600.825 1219.259">
  <defs>
    <style>
      .cls-1 {
        fill: #fff;
      }
    </style>
  </defs>
  <g id="shanivarwada" transform="translate(0 -16.481)">
    <g id="Layer_1" transform="translate(0 16.481)">
      <path id="path47" class="cls-1" d="M552.286,16.483a7.986,7.986,0,0,0-7.161,4.6L515.334,83.274H488.253a7.986,7.986,0,0,0-7.161,4.6L433.068,188.059c-.033.07,0,.155-.03.227a8.363,8.363,0,0,0-.814,3.49v33.4a8.185,8.185,0,0,0,8.009,8.349h24.013V359.566l-87.232-9.1c-.116-.015-.227.042-.344.033-.163-.01-.3-.1-.469-.1H216.112c-.167,0-.305.089-.469.1-.116.009-.227-.047-.344-.033l-160.083,16.7a8.174,8.174,0,0,0-7.192,8.284v843.591H11.943c-7.167,0-11.943,3.34-11.943,8.348s4.776,8.349,11.943,8.349H1588.881c7.169,0,11.943-3.339,11.943-8.349s-4.775-8.349-11.943-8.349h-20.075V375.449a8.174,8.174,0,0,0-7.191-8.284l-160.081-16.7c-.116-.015-.227.042-.344.033-.163-.01-.3-.1-.469-.1H1240.639c-.167,0-.305.089-.469.1-.116.009-.227-.047-.344-.033l-87.232,9.1V233.519h24.019a8.174,8.174,0,0,0,8.008-8.349V191.775c0-.107-.06-.189-.062-.294a8.755,8.755,0,0,0-.25-1.369,8.553,8.553,0,0,0-.469-1.794c-.037-.085-.022-.177-.062-.261L1135.755,87.872a8.019,8.019,0,0,0-7.172-4.633h-27.076L1071.715,21.08a7.986,7.986,0,0,0-7.161-4.6Zm4.94,16.664h502.386l24.7,51.529a8.294,8.294,0,0,0-3.752,6.913,8.185,8.185,0,0,0,8.009,8.349h3.063l8.009,16.7H517.206Zm552.286,66.791h14.138l40.021,83.488h-75.1v-16.7h24.013a8.174,8.174,0,0,0,8.008-8.349v-33.4a8.366,8.366,0,0,0-.814-3.49c-.032-.072,0-.157-.03-.227Zm-616.319.033h14.132l-10.224,21.3c-.034.07,0,.155-.031.227a8.363,8.363,0,0,0-.814,3.49v33.4a8.185,8.185,0,0,0,8.009,8.349h24.013v16.7h-75.1Zm19.072,33.361h592.311v16.7H512.265Zm32.017,33.4h64.033V236a47.5,47.5,0,0,0-16.008-2.479c-17.657,0-32.017,12.173-32.017,27.134v6.262a8.357,8.357,0,0,0,0,16.7V367.1H544.282V166.728Zm80.042,0H992.514V266.914a8.357,8.357,0,0,0,0,16.7V367.1H976.507l.063-150.278c0-18.417-17.959-33.4-40.051-33.4-13.125,0-24.712,5.37-32.017,13.535-7.308-8.167-18.88-13.535-32.017-13.535s-24.712,5.37-32.016,13.534c-7.308-8.167-18.88-13.535-32.017-13.535s-24.712,5.37-32.017,13.535c-7.308-8.167-18.88-13.535-32.017-13.535s-24.712,5.37-32.017,13.535c-7.308-8.167-18.88-13.535-32.017-13.535-22.076,0-40.052,14.978-40.052,33.4v16.7a8.357,8.357,0,0,0,0,16.7V367.1H624.324Zm384.2,0h64.033V367.1h-16V266.914a8.515,8.515,0,0,0-.594-3.131,8.646,8.646,0,0,0,.594-3.131c0-14.949-14.36-27.134-32.017-27.134a36.033,36.033,0,0,0-16.009,3.783Zm-560.287,33.4h80.042v16.7H448.232Zm232.152,0c12.694,0,23.818,7.7,24.013,16.469,0,.078-.032.151-.032.229v16.7a8.357,8.357,0,0,0,0,16.7V333.7H656.341V250.217a8.357,8.357,0,0,0,0-16.7v-16.7c0-8.883,11.238-16.7,24.044-16.7Zm64.033,0c12.694,0,23.818,7.7,24.013,16.469,0,.078-.032.151-.032.229v16.7a8.357,8.357,0,0,0,0,16.7V333.7H720.406l.03-83.488a8.359,8.359,0,0,0,0-16.7v-16.7c0-.078-.03-.151-.03-.229.192-8.787,11.317-16.469,24.013-16.469Zm64.033,0c12.7,0,23.818,7.7,24.013,16.469,0,.078-.032.151-.032.229v16.7a8.357,8.357,0,0,0,0,16.7V333.7H784.439l.031-83.488a8.359,8.359,0,0,0,0-16.7v-16.7c0-.078-.031-.151-.031-.229.192-8.787,11.317-16.469,24.013-16.469Zm64.033,0c12.7,0,23.818,7.7,24.013,16.469,0,.078-.032.151-.032.229v16.7a8.357,8.357,0,0,0,0,16.7V333.7H848.477l.031-83.488a8.359,8.359,0,0,0,0-16.7v-16.7c0-.078-.031-.151-.031-.229.187-8.787,11.311-16.469,24.007-16.469Zm64.033,0c12.806,0,24.043,7.831,24.043,16.7v16.828a7.657,7.657,0,0,0-5.691,2.381,8.049,8.049,0,0,0-2.376,5.838,7.958,7.958,0,0,0,2.376,5.838,7.449,7.449,0,0,0,5.628,2.512h.062l-.03,83.488H912.5l.03-83.488a8.359,8.359,0,0,0,0-16.7v-16.7c0-.078-.03-.151-.03-.229.192-8.787,11.317-16.469,24.013-16.469Zm152.047,0H1168.6v16.7h-80.042ZM480.249,233.519h48.025V366.247l-48.025-5.019Zm608.315,0h48.025V361.228l-48.025,5.019Zm-496.253,16.7c7.7,0,16.009,2.029,16.009,6.522v10.535a7.566,7.566,0,0,0-5.6,2.153,8.049,8.049,0,0,0-2.376,5.838,7.958,7.958,0,0,0,2.376,5.838,6.007,6.007,0,0,0,2.563,1.86,6.228,6.228,0,0,0,3.034.651v50.093H576.294V283.612a8.357,8.357,0,0,0,0-16.7v-6.262C576.294,255.727,583.15,250.217,592.311,250.217Zm432.224,0c9.156,0,16.009,5.51,16.009,10.436a8.512,8.512,0,0,0,.594,3.131,8.517,8.517,0,0,0-.594,3.131v.359a7.269,7.269,0,0,0-5.6,2.153,8.049,8.049,0,0,0-2.38,5.838,7.958,7.958,0,0,0,2.376,5.838,6.007,6.007,0,0,0,2.563,1.86,6.229,6.229,0,0,0,3.034.651v50.093h-32.016V283.612a8.357,8.357,0,0,0,0-16.7v-6.262c0-4.927,6.852-10.437,16.009-10.437ZM576.294,350.4h32.017v16.7H576.294Zm80.042,0H704.36v16.7H656.341Zm64.033,0h48.024v16.7H720.374Zm64.033,0h48.024v16.7H784.409Zm64.033,0h48.024v16.7H848.44Zm64.033,0h48.024v16.7H912.473Zm96.05,0h32.017v16.7h-32.012ZM224.108,367.1H368.191v33.4H224.116Zm1024.531,0h144.075v33.4H1248.647Zm-1040.54.882V400.5H64.033V383.014Zm176.092,0,144.082,15.031V400.5H384.2Zm848.44,0V400.5H1088.562V383.014Zm176.092,0L1552.8,383.014V400.5H1408.732ZM544.282,383.8h48.029v16.7H544.282Zm64.033,0h400.208v33.4H608.315Zm416.216,0h48.024v16.7h-48.024Zm-960.5,33.4H208.107V567.472H64.033Zm160.083,0H368.191V567.472H224.116Zm160.083,0H528.274V567.472H384.2Zm160.083,0h48.029v8.349a8.185,8.185,0,0,0,8.008,8.349h8.009V567.831H544.282Zm480.249,0h48.024V567.831h-64.033V433.891h8.008a8.174,8.174,0,0,0,8.008-8.349Zm64.033,0h144.074V567.472H1088.562Zm160.083,0h144.075V567.472H1248.647Zm160.083,0H1552.8V567.472H1408.732Zm-784.409,16.7H992.514v33.4H624.324v-33.4Zm-488.251,16.7c-13.241,0-24.013,11.238-24.013,25.046v50.093a8.185,8.185,0,0,0,8.009,8.349h32.017a8.174,8.174,0,0,0,8.009-8.349V475.635C160.083,461.826,149.309,450.588,136.07,450.588Zm160.083,0c-13.241,0-24.013,11.238-24.013,25.046v50.093a8.185,8.185,0,0,0,8.009,8.349h32.013a8.174,8.174,0,0,0,8.008-8.349V475.635C320.166,461.826,309.392,450.588,296.153,450.588Zm160.083,0c-13.241,0-24.013,11.238-24.013,25.046v50.093a8.185,8.185,0,0,0,8.009,8.349h32.017a8.174,8.174,0,0,0,8.009-8.349V475.635C480.249,461.826,469.475,450.588,456.236,450.588Zm704.365,0c-13.241,0-24.013,11.238-24.013,25.046v50.093a8.184,8.184,0,0,0,8.008,8.349h32.016a8.174,8.174,0,0,0,8.008-8.349V475.635c-.011-13.809-10.785-25.046-24.015-25.046Zm160.083,0c-13.241,0-24.013,11.238-24.013,25.046v50.093a8.185,8.185,0,0,0,8.009,8.349H1336.7a8.174,8.174,0,0,0,8.008-8.349V475.635c-.01-13.809-10.784-25.046-24.025-25.046Zm160.083,0c-13.241,0-24.013,11.238-24.013,25.046v50.093a8.185,8.185,0,0,0,8.009,8.349h32.017a8.174,8.174,0,0,0,8.008-8.349V475.635c-.007-13.809-10.782-25.046-24.022-25.046Zm-1392.722.36a8.174,8.174,0,0,0-8.009,8.349v66.79a8.009,8.009,0,1,0,16.009,0V459.3A8.174,8.174,0,0,0,88.046,450.948Zm96.05,0a8.185,8.185,0,0,0-8.009,8.349v66.79a8.009,8.009,0,1,0,16.009,0V459.3a8.185,8.185,0,0,0-8-8.348Zm64.033,0a8.185,8.185,0,0,0-8.009,8.349v66.79a8.009,8.009,0,1,0,16.009,0V459.3a8.185,8.185,0,0,0-8-8.348Zm96.05,0a8.185,8.185,0,0,0-8.009,8.349v66.79a8.009,8.009,0,1,0,16.009,0V459.3a8.185,8.185,0,0,0-8-8.348Zm64.033,0A8.185,8.185,0,0,0,400.2,459.3v66.79a8.009,8.009,0,1,0,16.009,0V459.3a8.185,8.185,0,0,0-8-8.348Zm96.05,0a8.185,8.185,0,0,0-8.009,8.349v66.79a8.009,8.009,0,1,0,16.009,0V459.3a8.185,8.185,0,0,0-8-8.348Zm608.315,0a8.185,8.185,0,0,0-8.009,8.349v66.79a8.009,8.009,0,1,0,16.009,0V459.3a8.185,8.185,0,0,0-8-8.348Zm96.05,0a8.185,8.185,0,0,0-8.009,8.349v66.79a8.008,8.008,0,1,0,16.008,0V459.3a8.185,8.185,0,0,0-8-8.348Zm64.033,0a8.185,8.185,0,0,0-8.009,8.349v66.79a8.008,8.008,0,1,0,16.008,0V459.3a8.185,8.185,0,0,0-8-8.348Zm96.05,0a8.185,8.185,0,0,0-8.009,8.349v66.79a8.009,8.009,0,1,0,16.009,0V459.3a8.185,8.185,0,0,0-8-8.348Zm64.033,0a8.185,8.185,0,0,0-8.009,8.349v66.79a8.009,8.009,0,1,0,16.008,0V459.3a8.185,8.185,0,0,0-8-8.348Zm96.05,0a8.185,8.185,0,0,0-8.009,8.349v66.79a8.009,8.009,0,1,0,16.009,0V459.3a8.185,8.185,0,0,0-8-8.348ZM136.07,467.286a8.206,8.206,0,0,1,8.009,8.349v41.744H128.066V475.635a8.206,8.206,0,0,1,8-8.348Zm160.083,0a8.206,8.206,0,0,1,8.009,8.349v41.744H288.149V475.635a8.206,8.206,0,0,1,8-8.348Zm160.083,0a8.206,8.206,0,0,1,8.009,8.349v41.744H448.232V475.635A8.206,8.206,0,0,1,456.236,467.286Zm704.365,0a8.206,8.206,0,0,1,8.009,8.349v41.744H1152.6V475.635a8.206,8.206,0,0,1,8.005-8.348Zm160.083,0a8.206,8.206,0,0,1,8.009,8.349v41.744h-16.008V475.635a8.206,8.206,0,0,1,8-8.348Zm160.083,0a8.206,8.206,0,0,1,8.009,8.349v41.744h-16.008V475.635a8.206,8.206,0,0,1,8-8.348Zm-856.444,16.7H992.514v25.275a38.584,38.584,0,0,0-24.016-8.579,39.367,39.367,0,0,0-32.017,16.958,38.7,38.7,0,0,0-64.033,0,38.7,38.7,0,0,0-64.033,0,38.7,38.7,0,0,0-64.033,0,38.7,38.7,0,0,0-64.033,0,39.368,39.368,0,0,0-32.017-16.958,38.585,38.585,0,0,0-24.013,8.578Zm24.013,33.4c13.241,0,24.013,11.238,24.013,25.046V564.7a8.422,8.422,0,0,0,.534,2.776H624.324V542.426c0-13.806,10.774-25.046,24.013-25.046Zm64.033,0c13.241,0,24.013,11.238,24.013,25.046V564.7a8.418,8.418,0,0,0,.534,2.776h-49.09a8.419,8.419,0,0,0,.534-2.776V542.428c0-13.808,10.771-25.049,24.01-25.049Zm64.033,0c13.241,0,24.013,11.238,24.013,25.046V564.7a8.417,8.417,0,0,0,.534,2.776h-49.09a8.417,8.417,0,0,0,.534-2.776V542.428c0-13.808,10.767-25.049,24.007-25.049Zm64.033,0c13.241,0,24.013,11.238,24.013,25.046V564.7a8.414,8.414,0,0,0,.534,2.776h-49.09a8.418,8.418,0,0,0,.534-2.776V542.428c0-13.808,10.771-25.049,24.01-25.049Zm64.033,0c13.241,0,24.013,11.238,24.013,25.046V564.7a8.417,8.417,0,0,0,.534,2.776h-49.09a8.418,8.418,0,0,0,.534-2.776V542.428c0-13.808,10.771-25.049,24.011-25.049Zm64.033,0c13.241,0,24.013,11.238,24.013,25.046v25.046H943.958a8.419,8.419,0,0,0,.534-2.776V542.424c0-13.8,10.772-25.044,24.006-25.044ZM64.033,584.169H208.107v16.7H64.033Zm160.083,0H368.191v16.7H224.116Zm160.083,0H528.274v16.7H384.2Zm240.125,0H992.514v16.7H624.324Zm464.241,0h144.075v16.7H1088.562Zm160.083,0h144.075v16.7H1248.647Zm160.083,0H1552.8v16.7H1408.732Zm-864.448.359h64.033v16.337H544.282Zm464.241,0h64.033v16.337h-64.033Zm-944.49,33.04H208.107v601.116H64.033Zm160.083,0H368.191v601.116H224.116Zm160.083,0H528.274v601.116H384.2Zm160.083,0h64.033v601.116H544.282Zm80.042,0H992.514v601.116H960.5v-249.2c0-50.08-25.685-96.95-67.035-122.331L820.52,802.417a7.712,7.712,0,0,0-8.348.13L735.913,852.64c-39.812,26.113-63.565,71-63.565,120.08v245.964H624.324Zm384.2,0h64.033v601.116h-64.03Zm80.042,0h144.074v601.116H1088.562Zm160.083,0h144.075v601.116H1248.647Zm160.083,0H1552.8v601.116H1408.732ZM88.046,651.319a8.174,8.174,0,0,0-8.009,8.349V759.854a8.009,8.009,0,1,0,16.009,0V659.668A8.174,8.174,0,0,0,88.046,651.319Zm48.024,0a8.174,8.174,0,0,0-8.009,8.349V759.854a8.009,8.009,0,1,0,16.009,0V659.668A8.174,8.174,0,0,0,136.07,651.319Zm48.024,0a8.185,8.185,0,0,0-8.009,8.349V759.854a8.009,8.009,0,1,0,16.009,0V659.668a8.185,8.185,0,0,0-8-8.349Zm64.033,0a8.185,8.185,0,0,0-8.009,8.349V759.854a8.009,8.009,0,1,0,16.009,0V659.668a8.185,8.185,0,0,0-8-8.349Zm48.024,0a8.185,8.185,0,0,0-8.009,8.349V759.854a8.009,8.009,0,1,0,16.009,0V659.668a8.185,8.185,0,0,0-8-8.349Zm48.024,0a8.185,8.185,0,0,0-8.009,8.349V759.854a8.009,8.009,0,1,0,16.009,0V659.668a8.185,8.185,0,0,0-8-8.349Zm64.033,0a8.185,8.185,0,0,0-8.009,8.349V759.854a8.009,8.009,0,1,0,16.009,0V659.668a8.185,8.185,0,0,0-8-8.349Zm48.024,0a8.185,8.185,0,0,0-8.009,8.349V759.854a8.009,8.009,0,1,0,16.009,0V659.668a8.185,8.185,0,0,0-8-8.349Zm48.024,0a8.185,8.185,0,0,0-8.009,8.349V759.854a8.009,8.009,0,1,0,16.009,0V659.668a8.185,8.185,0,0,0-8-8.349Zm72.037,0a8.185,8.185,0,0,0-8.009,8.349V759.854a8.009,8.009,0,1,0,16.009,0V659.668a8.185,8.185,0,0,0-8-8.349Zm104.054,0a8.185,8.185,0,0,0-8.009,8.349V759.854a8.009,8.009,0,1,0,16.009,0V659.668a8.185,8.185,0,0,0-8-8.349Zm64.033,0a8.185,8.185,0,0,0-8.009,8.349V759.854a8.009,8.009,0,1,0,16.009,0V659.668a8.185,8.185,0,0,0-8-8.349Zm64.033,0a8.184,8.184,0,0,0-8.008,8.349V759.854a8.009,8.009,0,1,0,16.008,0V659.668a8.185,8.185,0,0,0-8-8.349Zm64.033,0a8.184,8.184,0,0,0-8.009,8.349V759.854a8.009,8.009,0,1,0,16.008,0V659.668a8.185,8.185,0,0,0-8-8.349Zm64.033,0a8.185,8.185,0,0,0-8.009,8.349V759.854a8.009,8.009,0,1,0,16.009,0V659.668a8.185,8.185,0,0,0-8-8.349Zm104.054,0a8.185,8.185,0,0,0-8.009,8.349V759.854a8.009,8.009,0,1,0,16.009,0V659.668a8.185,8.185,0,0,0-8-8.349Zm72.037,0a8.185,8.185,0,0,0-8.009,8.349V759.854a8.009,8.009,0,1,0,16.008,0V659.668a8.185,8.185,0,0,0-8-8.349Zm48.024,0a8.185,8.185,0,0,0-8.009,8.349V759.854a8.009,8.009,0,1,0,16.009,0V659.668a8.185,8.185,0,0,0-7.991-8.349Zm48.026,0a8.185,8.185,0,0,0-8.009,8.349V759.854a8.009,8.009,0,1,0,16.009,0V659.668a8.185,8.185,0,0,0-8-8.349Zm64.033,0a8.185,8.185,0,0,0-8.009,8.349V759.854a8.009,8.009,0,1,0,16.009,0V659.668a8.185,8.185,0,0,0-7.995-8.349Zm48.026,0a8.185,8.185,0,0,0-8.009,8.349V759.854a8.009,8.009,0,1,0,16.009,0V659.668a8.185,8.185,0,0,0-8-8.349Zm48.025,0a8.185,8.185,0,0,0-8.009,8.349V759.854a8.009,8.009,0,1,0,16.009,0V659.668a8.185,8.185,0,0,0-8-8.349Zm64.033,0a8.185,8.185,0,0,0-8.009,8.349V759.854a8.009,8.009,0,1,0,16.009,0V659.668a8.185,8.185,0,0,0-7.993-8.349Zm48.024,0a8.185,8.185,0,0,0-8.008,8.349V759.854a8.008,8.008,0,1,0,16.008,0V659.668a8.185,8.185,0,0,0-8-8.349Zm48.025,0a8.185,8.185,0,0,0-8.009,8.349V759.854a8.009,8.009,0,1,0,16.009,0V659.668a8.185,8.185,0,0,0-7.992-8.349ZM712.369,784.542c-13.241,0-24.013,11.238-24.013,25.046s10.773,25.046,24.013,25.046,24.013-11.238,24.013-25.046S725.608,784.542,712.369,784.542Zm192.1,0c-13.241,0-24.013,11.238-24.013,25.046s10.774,25.046,24.013,25.046S928.48,823.4,928.48,809.588s-10.772-25.046-24.011-25.046Zm-192.1,16.7a8.357,8.357,0,1,1-8.008,8.349,8.206,8.206,0,0,1,8.008-8.349Zm192.1,0a8.357,8.357,0,1,1-8.008,8.349,8.206,8.206,0,0,1,8.01-8.349Zm-87.889,18.133L885.3,861.539c36.5,22.408,59.187,63.767,59.187,107.949V1218.68H912.473V970.37a97.418,97.418,0,0,0-.782-12.393c-3.663-28.63-19.847-54.471-44.022-69.3l-47.181-28.959c-.01-.006-.022,0-.03,0l-4.191-2.577-4.127,2.707-49.333,32.417c-26.573,17.449-42.428,47.433-42.428,80.192v246.225H688.357V972.72c0-43.313,20.97-82.931,56.092-105.99Zm7.847,62.127,35.113,21.557a75.106,75.106,0,0,1,17.449,15.067H824.428Zm-16.009.521v36.1h-50.9a75.994,75.994,0,0,1,13.82-11.74Zm79.51,52.506a80.605,80.605,0,0,1,7.879,25.635c.34,2.658.458,5.346.534,8.055H824.428v-33.4H886.46a7.369,7.369,0,0,0,1.469-.294Zm-142.293.132c0-.006.029,0,.032,0,.248.023.465.162.719.162h62.032v33.4H736.632a80.49,80.49,0,0,1,9-33.558Zm-9.255,50.255h72.037v33.4H736.382Zm88.046,0h72.037v33.4H824.428Zm-88.046,50.093h72.037v33.4H736.382Zm88.046,0h72.037v33.4H824.428ZM736.379,1085.1h72.037v33.4H736.382Zm88.046,0h72.037v33.4H824.428Zm-88.046,50.093h72.037v33.4H736.382Zm88.046,0h72.037v33.4H824.428Zm-88.046,50.093h72.037v33.4H736.382Zm88.046,0h72.037v33.4H824.428Z" transform="translate(0 -16.481)"/>
    </g>
  </g>
</svg>
