<svg xmlns="http://www.w3.org/2000/svg" width="258.488" height="550.766" viewBox="0 0 258.488 550.766">
  <g id="temperature" transform="translate(0)">
    <path id="Path_65" data-name="Path 65" d="M335.036,321.359V73.688c0-34.025-28.589-61.708-63.764-61.708s-63.764,27.683-63.764,61.708V320.659a128.544,128.544,0,0,0-65.9,112.831c0,71.274,57.815,129.255,129.087,129.255h0c71.272,0,129.394-57.971,129.4-129.254A128.576,128.576,0,0,0,335.036,321.359ZM270.7,544.711a111.3,111.3,0,0,1-50.279-210.548,9.183,9.183,0,0,0,5.143-8.069V73.688c0-24.069,20.488-43.651,45.707-43.651s45.707,19.582,45.707,43.651V106.8H305.016a9.029,9.029,0,1,0,0,18.057h11.963v16.929H305.016a9.029,9.029,0,1,0,0,18.057h11.963v19.186H305.016a9.029,9.029,0,1,0,0,18.057h11.963v16.929H305.016a9.029,9.029,0,1,0,0,18.057h11.963v20.314H305.016a9.029,9.029,0,1,0,0,18.057h11.963v16.929H305.016a9.029,9.029,0,1,0,0,18.057h11.963V326.7a8.907,8.907,0,0,0,4.713,8A111.164,111.164,0,0,1,270.7,544.711Z" transform="translate(-141.611 -11.98)" fill="#3d75f9"/>
    <path id="Path_66" data-name="Path 66" d="M271.964,370.211V73.029a9.029,9.029,0,0,0-18.057,0V370.211a60.88,60.88,0,1,0,18.057,0Zm-9.029,103.03a42.823,42.823,0,0,1-2.09-85.593,8.767,8.767,0,0,0,4.176,0,42.823,42.823,0,0,1-2.086,85.593Z" transform="translate(-133.839 -5.292)" fill="#3d75f9"/>
  </g>
</svg>
