<svg xmlns="http://www.w3.org/2000/svg" width="468.187" height="564.762" viewBox="0 0 468.187 564.762">
  <g id="Water" transform="translate(0)">
    <g id="Group_51" data-name="Group 51" transform="translate(0)">
      <g id="Group_50" data-name="Group 50">
        <path id="Path_27" data-name="Path 27" d="M316.778,243.2a9.517,9.517,0,0,0-.467-1.051L294.248,199.63a9.494,9.494,0,1,0-16.854,8.746l21.793,42A126.2,126.2,0,0,1,184.907,420.142,126.2,126.2,0,0,1,70.627,250.378L184.906,30.111l77.432,149.245a9.5,9.5,0,0,0,16.857-8.745L193.336,5.121a9.5,9.5,0,0,0-16.858,0L53.5,242.151a9.829,9.829,0,0,0-.466,1.051A145.19,145.19,0,0,0,184.617,439.131c.1,0,.193,0,.29,0s.193,0,.288,0A145.191,145.191,0,0,0,316.778,243.2Z" transform="translate(-43.777 0)" fill="#00bef9"/>
        <path id="Path_28" data-name="Path 28" d="M477.289,289.631a9.669,9.669,0,0,0-.467-1.051l-21.629-41.69a9.5,9.5,0,0,0-16.857,8.745l21.355,41.159a57.416,57.416,0,0,1-51.935,76.946A57.41,57.41,0,0,1,355.823,296.8l51.933-100.1,17.207,33.164a9.495,9.495,0,1,0,16.856-8.745l-25.635-49.409a9.5,9.5,0,0,0-16.857,0L338.69,288.58a9.732,9.732,0,0,0-.467,1.051,76.4,76.4,0,0,0,69.241,103.1c.1,0,.194,0,.291,0s.194,0,.294-.006a76.4,76.4,0,0,0,69.24-103.1Z" transform="translate(-13.935 17.168)" fill="#00bef9"/>
        <path id="Path_29" data-name="Path 29" d="M363.458,452.638l-40.4-77.876a9.5,9.5,0,0,0-16.855,0L265.79,452.638a9.389,9.389,0,0,0-.468,1.053,54.077,54.077,0,0,0,49.011,72.974c.1,0,.194,0,.293,0s.194,0,.293,0a54.073,54.073,0,0,0,49-72.976A9.889,9.889,0,0,0,363.458,452.638Zm-37.917,52.846a34.037,34.037,0,0,1-42.617-44.642l31.7-61.09,31.694,61.09A35.132,35.132,0,0,1,325.541,505.484Z" transform="translate(-21.298 38.093)" fill="#00bef9"/>
      </g>
    </g>
  </g>
</svg>
